<mxfile host="Electron" agent="Mozilla/5.0 (Windows NT 10.0; Win64; x64) AppleWebKit/537.36 (KHTML, like Gecko) draw.io/26.2.2 Chrome/134.0.6998.178 Electron/35.1.2 Safari/537.36" version="26.2.2">
  <diagram name="Seite-1" id="tsrc8ydOF3_2nM63vob0">
    <mxGraphModel dx="1723" dy="2170" grid="1" gridSize="10" guides="1" tooltips="1" connect="1" arrows="1" fold="1" page="1" pageScale="1" pageWidth="827" pageHeight="1169" math="0" shadow="0">
      <root>
        <mxCell id="0" />
        <mxCell id="1" parent="0" />
        <mxCell id="QP1Ot8ZAfSgMZhXPvZnd-15" style="edgeStyle=orthogonalEdgeStyle;shape=connector;rounded=0;orthogonalLoop=1;jettySize=auto;html=1;exitX=1;exitY=0.5;exitDx=0;exitDy=0;entryX=0;entryY=0.5;entryDx=0;entryDy=0;strokeColor=#788AA3;align=center;verticalAlign=middle;fontFamily=Helvetica;fontSize=11;fontColor=default;labelBackgroundColor=none;startFill=0;endArrow=none;fontStyle=1" parent="1" source="QP1Ot8ZAfSgMZhXPvZnd-40" target="2SzFF_72ARvEB5GiTpjh-35" edge="1">
          <mxGeometry relative="1" as="geometry">
            <mxPoint x="1043" y="150" as="targetPoint" />
          </mxGeometry>
        </mxCell>
        <mxCell id="QP1Ot8ZAfSgMZhXPvZnd-21" style="edgeStyle=orthogonalEdgeStyle;rounded=0;orthogonalLoop=1;jettySize=auto;html=1;exitX=1;exitY=0.5;exitDx=0;exitDy=0;entryX=0.5;entryY=1;entryDx=0;entryDy=0;strokeColor=#788AA3;fontColor=default;fillColor=#B2C9AB;endArrow=none;startFill=0;labelBackgroundColor=none;fontStyle=1" parent="1" source="2SzFF_72ARvEB5GiTpjh-3" target="QP1Ot8ZAfSgMZhXPvZnd-67" edge="1">
          <mxGeometry relative="1" as="geometry">
            <mxPoint x="355" y="-15" as="targetPoint" />
          </mxGeometry>
        </mxCell>
        <mxCell id="QP1Ot8ZAfSgMZhXPvZnd-49" style="edgeStyle=orthogonalEdgeStyle;shape=connector;rounded=0;orthogonalLoop=1;jettySize=auto;html=1;exitX=1;exitY=0.25;exitDx=0;exitDy=0;entryX=0;entryY=0.5;entryDx=0;entryDy=0;strokeColor=#788AA3;align=center;verticalAlign=middle;fontFamily=Helvetica;fontSize=11;fontColor=default;labelBackgroundColor=none;startFill=0;endArrow=none;fillColor=#B2C9AB;fontStyle=1" parent="1" source="QP1Ot8ZAfSgMZhXPvZnd-1" target="QP1Ot8ZAfSgMZhXPvZnd-48" edge="1">
          <mxGeometry relative="1" as="geometry">
            <Array as="points">
              <mxPoint x="260" y="140" />
              <mxPoint x="315" y="140" />
              <mxPoint x="315" y="90" />
            </Array>
          </mxGeometry>
        </mxCell>
        <mxCell id="2SzFF_72ARvEB5GiTpjh-55" style="edgeStyle=orthogonalEdgeStyle;shape=connector;rounded=0;orthogonalLoop=1;jettySize=auto;html=1;exitX=0;exitY=0.75;exitDx=0;exitDy=0;entryX=0;entryY=0.5;entryDx=0;entryDy=0;strokeColor=#788AA3;align=center;verticalAlign=middle;fontFamily=Helvetica;fontSize=11;fontColor=default;labelBackgroundColor=none;startFill=0;endArrow=none;fillColor=#B2C9AB;fontStyle=1" edge="1" parent="1" source="QP1Ot8ZAfSgMZhXPvZnd-1" target="QP1Ot8ZAfSgMZhXPvZnd-37">
          <mxGeometry relative="1" as="geometry">
            <Array as="points">
              <mxPoint x="160" y="158" />
              <mxPoint x="160" y="240" />
            </Array>
          </mxGeometry>
        </mxCell>
        <mxCell id="QP1Ot8ZAfSgMZhXPvZnd-1" value="Book" style="rounded=1;whiteSpace=wrap;html=1;labelBackgroundColor=none;fillColor=#B2C9AB;strokeColor=#788AA3;fontColor=#46495D;fontStyle=1" parent="1" vertex="1">
          <mxGeometry x="210" y="135" width="50" height="30" as="geometry" />
        </mxCell>
        <mxCell id="QP1Ot8ZAfSgMZhXPvZnd-27" style="edgeStyle=orthogonalEdgeStyle;shape=connector;rounded=0;orthogonalLoop=1;jettySize=auto;html=1;exitX=0.575;exitY=0.033;exitDx=0;exitDy=0;entryX=0.5;entryY=1;entryDx=0;entryDy=0;strokeColor=#788AA3;align=center;verticalAlign=middle;fontFamily=Helvetica;fontSize=11;fontColor=default;labelBackgroundColor=none;startFill=0;endArrow=classic;fillColor=#B2C9AB;endFill=1;exitPerimeter=0;fontStyle=1" parent="1" source="QP1Ot8ZAfSgMZhXPvZnd-2" target="QP1Ot8ZAfSgMZhXPvZnd-23" edge="1">
          <mxGeometry relative="1" as="geometry" />
        </mxCell>
        <mxCell id="QP1Ot8ZAfSgMZhXPvZnd-2" value="Jornal" style="rounded=1;whiteSpace=wrap;html=1;labelBackgroundColor=none;fillColor=#B2C9AB;strokeColor=#788AA3;fontColor=#46495D;fontStyle=1" parent="1" vertex="1">
          <mxGeometry x="415" y="195" width="60" height="30" as="geometry" />
        </mxCell>
        <mxCell id="QP1Ot8ZAfSgMZhXPvZnd-7" value="" style="edgeStyle=orthogonalEdgeStyle;rounded=0;orthogonalLoop=1;jettySize=auto;html=1;strokeColor=#788AA3;fontColor=default;endArrow=none;startFill=0;labelBackgroundColor=none;fontStyle=1" parent="1" source="QP1Ot8ZAfSgMZhXPvZnd-3" target="QP1Ot8ZAfSgMZhXPvZnd-1" edge="1">
          <mxGeometry relative="1" as="geometry" />
        </mxCell>
        <mxCell id="QP1Ot8ZAfSgMZhXPvZnd-3" value="publishing House" style="rounded=1;whiteSpace=wrap;html=1;labelBackgroundColor=none;fillColor=#B2C9AB;strokeColor=#788AA3;fontColor=#46495D;shape=ellipse;perimeter=ellipsePerimeter;fontStyle=1" parent="1" vertex="1">
          <mxGeometry x="20" y="110" width="110" height="30" as="geometry" />
        </mxCell>
        <mxCell id="QP1Ot8ZAfSgMZhXPvZnd-36" value="" style="edgeStyle=orthogonalEdgeStyle;shape=connector;rounded=0;orthogonalLoop=1;jettySize=auto;html=1;strokeColor=#788AA3;align=center;verticalAlign=middle;fontFamily=Helvetica;fontSize=11;fontColor=default;labelBackgroundColor=none;startFill=0;endArrow=none;fillColor=#B2C9AB;entryX=0.5;entryY=1;entryDx=0;entryDy=0;fontStyle=1" parent="1" source="2SzFF_72ARvEB5GiTpjh-28" target="QP1Ot8ZAfSgMZhXPvZnd-2" edge="1">
          <mxGeometry relative="1" as="geometry">
            <mxPoint x="435" y="460" as="targetPoint" />
          </mxGeometry>
        </mxCell>
        <mxCell id="2SzFF_72ARvEB5GiTpjh-59" style="edgeStyle=orthogonalEdgeStyle;shape=connector;rounded=0;orthogonalLoop=1;jettySize=auto;html=1;exitX=0;exitY=1;exitDx=0;exitDy=0;entryX=0;entryY=0.5;entryDx=0;entryDy=0;strokeColor=#788AA3;align=center;verticalAlign=middle;fontFamily=Helvetica;fontSize=11;fontColor=default;labelBackgroundColor=none;startFill=0;endArrow=none;fillColor=#B2C9AB;fontStyle=1" edge="1" parent="1" source="QP1Ot8ZAfSgMZhXPvZnd-4" target="2SzFF_72ARvEB5GiTpjh-58">
          <mxGeometry relative="1" as="geometry" />
        </mxCell>
        <mxCell id="2SzFF_72ARvEB5GiTpjh-61" style="edgeStyle=orthogonalEdgeStyle;shape=connector;rounded=0;orthogonalLoop=1;jettySize=auto;html=1;exitX=1;exitY=1;exitDx=0;exitDy=0;entryX=1;entryY=0.5;entryDx=0;entryDy=0;strokeColor=#788AA3;align=center;verticalAlign=middle;fontFamily=Helvetica;fontSize=11;fontColor=default;labelBackgroundColor=none;startFill=0;endArrow=none;fillColor=#B2C9AB;fontStyle=1" edge="1" parent="1" source="QP1Ot8ZAfSgMZhXPvZnd-4" target="2SzFF_72ARvEB5GiTpjh-58">
          <mxGeometry relative="1" as="geometry" />
        </mxCell>
        <mxCell id="2SzFF_72ARvEB5GiTpjh-119" style="edgeStyle=orthogonalEdgeStyle;shape=connector;rounded=0;orthogonalLoop=1;jettySize=auto;html=1;exitX=0.5;exitY=0;exitDx=0;exitDy=0;entryX=0.5;entryY=1;entryDx=0;entryDy=0;strokeColor=#788AA3;align=center;verticalAlign=middle;fontFamily=Helvetica;fontSize=11;fontColor=default;labelBackgroundColor=none;startFill=0;endArrow=none;fillColor=#B2C9AB;" edge="1" parent="1" source="QP1Ot8ZAfSgMZhXPvZnd-4" target="2SzFF_72ARvEB5GiTpjh-28">
          <mxGeometry relative="1" as="geometry" />
        </mxCell>
        <mxCell id="QP1Ot8ZAfSgMZhXPvZnd-4" value="Article" style="rounded=1;whiteSpace=wrap;html=1;labelBackgroundColor=none;fillColor=#B2C9AB;strokeColor=#788AA3;fontColor=#46495D;fontStyle=1" parent="1" vertex="1">
          <mxGeometry x="415" y="340" width="60" height="30" as="geometry" />
        </mxCell>
        <mxCell id="QP1Ot8ZAfSgMZhXPvZnd-33" value="" style="edgeStyle=orthogonalEdgeStyle;shape=connector;rounded=0;orthogonalLoop=1;jettySize=auto;html=1;strokeColor=#788AA3;align=center;verticalAlign=middle;fontFamily=Helvetica;fontSize=11;fontColor=default;labelBackgroundColor=none;startFill=0;endArrow=none;fillColor=#B2C9AB;fontStyle=1" parent="1" source="QP1Ot8ZAfSgMZhXPvZnd-6" target="QP1Ot8ZAfSgMZhXPvZnd-31" edge="1">
          <mxGeometry relative="1" as="geometry" />
        </mxCell>
        <mxCell id="QP1Ot8ZAfSgMZhXPvZnd-6" value="author" style="rounded=1;whiteSpace=wrap;html=1;labelBackgroundColor=none;fillColor=#B2C9AB;strokeColor=#788AA3;fontColor=#46495D;fontStyle=1" parent="1" vertex="1">
          <mxGeometry x="685" y="315" width="60" height="30" as="geometry" />
        </mxCell>
        <mxCell id="QP1Ot8ZAfSgMZhXPvZnd-17" style="edgeStyle=orthogonalEdgeStyle;shape=connector;rounded=0;orthogonalLoop=1;jettySize=auto;html=1;exitX=0.5;exitY=1;exitDx=0;exitDy=0;entryX=0.5;entryY=0;entryDx=0;entryDy=0;strokeColor=#788AA3;align=center;verticalAlign=middle;fontFamily=Helvetica;fontSize=11;fontColor=default;labelBackgroundColor=none;startFill=0;endArrow=none;fontStyle=1" parent="1" source="QP1Ot8ZAfSgMZhXPvZnd-55" target="QP1Ot8ZAfSgMZhXPvZnd-1" edge="1">
          <mxGeometry relative="1" as="geometry" />
        </mxCell>
        <mxCell id="2SzFF_72ARvEB5GiTpjh-8" style="edgeStyle=orthogonalEdgeStyle;rounded=0;orthogonalLoop=1;jettySize=auto;html=1;exitX=0;exitY=0.5;exitDx=0;exitDy=0;entryX=1;entryY=0.5;entryDx=0;entryDy=0;endArrow=none;startFill=0;labelBackgroundColor=none;strokeColor=#788AA3;fontColor=default;fontStyle=1" edge="1" parent="1" source="QP1Ot8ZAfSgMZhXPvZnd-8" target="2SzFF_72ARvEB5GiTpjh-7">
          <mxGeometry relative="1" as="geometry" />
        </mxCell>
        <mxCell id="QP1Ot8ZAfSgMZhXPvZnd-8" value="Copy" style="rounded=1;whiteSpace=wrap;html=1;labelBackgroundColor=none;fillColor=#B2C9AB;strokeColor=#788AA3;fontColor=#46495D;fontStyle=1" parent="1" vertex="1">
          <mxGeometry x="205" y="25" width="60" height="30" as="geometry" />
        </mxCell>
        <mxCell id="QP1Ot8ZAfSgMZhXPvZnd-29" value="" style="edgeStyle=orthogonalEdgeStyle;shape=connector;rounded=0;orthogonalLoop=1;jettySize=auto;html=1;strokeColor=#788AA3;align=center;verticalAlign=middle;fontFamily=Helvetica;fontSize=11;fontColor=default;labelBackgroundColor=none;startFill=0;endArrow=none;fillColor=#B2C9AB;fontStyle=1" parent="1" source="QP1Ot8ZAfSgMZhXPvZnd-19" target="QP1Ot8ZAfSgMZhXPvZnd-28" edge="1">
          <mxGeometry relative="1" as="geometry" />
        </mxCell>
        <mxCell id="QP1Ot8ZAfSgMZhXPvZnd-19" value="customer" style="rounded=1;whiteSpace=wrap;html=1;labelBackgroundColor=none;fillColor=#B2C9AB;strokeColor=#788AA3;fontColor=#46495D;fontStyle=1" parent="1" vertex="1">
          <mxGeometry x="700" y="-35" width="70" height="30" as="geometry" />
        </mxCell>
        <mxCell id="QP1Ot8ZAfSgMZhXPvZnd-45" style="edgeStyle=orthogonalEdgeStyle;shape=connector;rounded=0;orthogonalLoop=1;jettySize=auto;html=1;exitX=1;exitY=0.5;exitDx=0;exitDy=0;entryX=0;entryY=0.5;entryDx=0;entryDy=0;strokeColor=#788AA3;align=center;verticalAlign=middle;fontFamily=Helvetica;fontSize=11;fontColor=default;labelBackgroundColor=none;startFill=0;endArrow=none;fillColor=#B2C9AB;fontStyle=1" parent="1" source="2SzFF_72ARvEB5GiTpjh-5" target="QP1Ot8ZAfSgMZhXPvZnd-19" edge="1">
          <mxGeometry relative="1" as="geometry">
            <mxPoint x="475" y="-15" as="sourcePoint" />
          </mxGeometry>
        </mxCell>
        <mxCell id="QP1Ot8ZAfSgMZhXPvZnd-24" value="" style="edgeStyle=orthogonalEdgeStyle;shape=connector;rounded=0;orthogonalLoop=1;jettySize=auto;html=1;exitX=1;exitY=0.5;exitDx=0;exitDy=0;entryX=0;entryY=0.5;entryDx=0;entryDy=0;strokeColor=#788AA3;align=center;verticalAlign=middle;fontFamily=Helvetica;fontSize=11;fontColor=default;labelBackgroundColor=none;startFill=0;endArrow=classic;endFill=1;fontStyle=1" parent="1" source="QP1Ot8ZAfSgMZhXPvZnd-1" target="QP1Ot8ZAfSgMZhXPvZnd-23" edge="1">
          <mxGeometry relative="1" as="geometry">
            <mxPoint x="295" y="150" as="sourcePoint" />
            <mxPoint x="985" y="190" as="targetPoint" />
          </mxGeometry>
        </mxCell>
        <mxCell id="QP1Ot8ZAfSgMZhXPvZnd-23" value="is-a" style="whiteSpace=wrap;html=1;strokeColor=#788AA3;fontFamily=Helvetica;fontSize=11;fontColor=#46495D;labelBackgroundColor=none;fillColor=#B2C9AB;shape=hexagon;perimeter=hexagonPerimeter2;fixedSize=1;fontStyle=1" parent="1" vertex="1">
          <mxGeometry x="425" y="135" width="65" height="30" as="geometry" />
        </mxCell>
        <mxCell id="QP1Ot8ZAfSgMZhXPvZnd-26" value="" style="edgeStyle=orthogonalEdgeStyle;shape=connector;rounded=0;orthogonalLoop=1;jettySize=auto;html=1;exitX=1;exitY=0.5;exitDx=0;exitDy=0;entryX=0;entryY=0.5;entryDx=0;entryDy=0;strokeColor=#788AA3;align=center;verticalAlign=middle;fontFamily=Helvetica;fontSize=11;fontColor=default;labelBackgroundColor=none;startFill=0;endArrow=none;fontStyle=1" parent="1" source="QP1Ot8ZAfSgMZhXPvZnd-23" target="QP1Ot8ZAfSgMZhXPvZnd-25" edge="1">
          <mxGeometry relative="1" as="geometry">
            <mxPoint x="475" y="150" as="sourcePoint" />
            <mxPoint x="985" y="190" as="targetPoint" />
          </mxGeometry>
        </mxCell>
        <mxCell id="QP1Ot8ZAfSgMZhXPvZnd-30" value="" style="edgeStyle=orthogonalEdgeStyle;shape=connector;rounded=0;orthogonalLoop=1;jettySize=auto;html=1;strokeColor=#788AA3;align=center;verticalAlign=middle;fontFamily=Helvetica;fontSize=11;fontColor=default;labelBackgroundColor=none;startFill=0;endArrow=none;fillColor=#B2C9AB;fontStyle=1;exitX=1;exitY=0;exitDx=0;exitDy=0;" parent="1" source="QP1Ot8ZAfSgMZhXPvZnd-25" target="QP1Ot8ZAfSgMZhXPvZnd-28" edge="1">
          <mxGeometry relative="1" as="geometry" />
        </mxCell>
        <mxCell id="QP1Ot8ZAfSgMZhXPvZnd-58" style="edgeStyle=orthogonalEdgeStyle;shape=connector;rounded=0;orthogonalLoop=1;jettySize=auto;html=1;exitX=0.5;exitY=1;exitDx=0;exitDy=0;entryX=0;entryY=0;entryDx=0;entryDy=0;strokeColor=#788AA3;align=center;verticalAlign=middle;fontFamily=Helvetica;fontSize=11;fontColor=default;labelBackgroundColor=none;startFill=0;endArrow=none;fillColor=#B2C9AB;fontStyle=1" parent="1" source="QP1Ot8ZAfSgMZhXPvZnd-59" target="QP1Ot8ZAfSgMZhXPvZnd-57" edge="1">
          <mxGeometry relative="1" as="geometry" />
        </mxCell>
        <mxCell id="QP1Ot8ZAfSgMZhXPvZnd-25" value="Publication" style="rounded=1;whiteSpace=wrap;html=1;labelBackgroundColor=none;fillColor=#B2C9AB;strokeColor=#788AA3;fontColor=#46495D;fontStyle=1" parent="1" vertex="1">
          <mxGeometry x="595" y="135" width="80" height="30" as="geometry" />
        </mxCell>
        <mxCell id="QP1Ot8ZAfSgMZhXPvZnd-28" value="reads" style="rhombus;whiteSpace=wrap;html=1;strokeColor=#788AA3;fontFamily=Helvetica;fontSize=11;fontColor=#46495D;labelBackgroundColor=none;fillColor=#B2C9AB;fontStyle=1" parent="1" vertex="1">
          <mxGeometry x="710" y="45" width="50" height="30" as="geometry" />
        </mxCell>
        <mxCell id="QP1Ot8ZAfSgMZhXPvZnd-32" value="" style="edgeStyle=orthogonalEdgeStyle;shape=connector;rounded=0;orthogonalLoop=1;jettySize=auto;html=1;strokeColor=#788AA3;align=center;verticalAlign=middle;fontFamily=Helvetica;fontSize=11;fontColor=default;labelBackgroundColor=none;startFill=0;endArrow=none;fillColor=#B2C9AB;entryX=0.375;entryY=1;entryDx=0;entryDy=0;entryPerimeter=0;fontStyle=1" parent="1" source="QP1Ot8ZAfSgMZhXPvZnd-31" target="QP1Ot8ZAfSgMZhXPvZnd-25" edge="1">
          <mxGeometry relative="1" as="geometry" />
        </mxCell>
        <mxCell id="QP1Ot8ZAfSgMZhXPvZnd-31" value="written by" style="rhombus;whiteSpace=wrap;html=1;strokeColor=#788AA3;fontFamily=Helvetica;fontSize=11;fontColor=#46495D;labelBackgroundColor=none;fillColor=#B2C9AB;fontStyle=1" parent="1" vertex="1">
          <mxGeometry x="680" y="240" width="70" height="30" as="geometry" />
        </mxCell>
        <mxCell id="2SzFF_72ARvEB5GiTpjh-56" style="edgeStyle=orthogonalEdgeStyle;shape=connector;rounded=0;orthogonalLoop=1;jettySize=auto;html=1;exitX=1;exitY=0.5;exitDx=0;exitDy=0;entryX=1;entryY=0.75;entryDx=0;entryDy=0;strokeColor=#788AA3;align=center;verticalAlign=middle;fontFamily=Helvetica;fontSize=11;fontColor=default;labelBackgroundColor=none;startFill=0;endArrow=none;fillColor=#B2C9AB;fontStyle=1" edge="1" parent="1" source="QP1Ot8ZAfSgMZhXPvZnd-37" target="QP1Ot8ZAfSgMZhXPvZnd-1">
          <mxGeometry relative="1" as="geometry" />
        </mxCell>
        <mxCell id="QP1Ot8ZAfSgMZhXPvZnd-37" value="translation template" style="rounded=1;whiteSpace=wrap;html=1;labelBackgroundColor=none;fillColor=#B2C9AB;strokeColor=#788AA3;fontColor=#46495D;shape=rhombus;arcSize=10;perimeter=rhombusPerimeter;fontStyle=1" parent="1" vertex="1">
          <mxGeometry x="160" y="240" width="130" height="30" as="geometry" />
        </mxCell>
        <mxCell id="QP1Ot8ZAfSgMZhXPvZnd-61" style="edgeStyle=orthogonalEdgeStyle;shape=connector;rounded=0;orthogonalLoop=1;jettySize=auto;html=1;exitX=0.5;exitY=1;exitDx=0;exitDy=0;entryX=0.5;entryY=0;entryDx=0;entryDy=0;strokeColor=#788AA3;align=center;verticalAlign=middle;fontFamily=Helvetica;fontSize=11;fontColor=default;labelBackgroundColor=none;startFill=0;endArrow=none;fillColor=#B2C9AB;fontStyle=1" parent="1" source="2SzFF_72ARvEB5GiTpjh-1" target="QP1Ot8ZAfSgMZhXPvZnd-67" edge="1">
          <mxGeometry relative="1" as="geometry">
            <mxPoint x="415" y="-30" as="targetPoint" />
          </mxGeometry>
        </mxCell>
        <mxCell id="QP1Ot8ZAfSgMZhXPvZnd-38" value="Employee" style="rounded=1;whiteSpace=wrap;html=1;labelBackgroundColor=none;fillColor=#B2C9AB;strokeColor=#788AA3;fontColor=#46495D;fontStyle=1" parent="1" vertex="1">
          <mxGeometry x="375" y="-160" width="80" height="30" as="geometry" />
        </mxCell>
        <mxCell id="QP1Ot8ZAfSgMZhXPvZnd-41" value="" style="edgeStyle=orthogonalEdgeStyle;shape=connector;rounded=0;orthogonalLoop=1;jettySize=auto;html=1;exitX=1;exitY=0.5;exitDx=0;exitDy=0;entryX=0;entryY=0.5;entryDx=0;entryDy=0;strokeColor=#788AA3;align=center;verticalAlign=middle;fontFamily=Helvetica;fontSize=11;fontColor=default;labelBackgroundColor=none;startFill=0;endArrow=none;fontStyle=1" parent="1" source="QP1Ot8ZAfSgMZhXPvZnd-42" target="QP1Ot8ZAfSgMZhXPvZnd-40" edge="1">
          <mxGeometry relative="1" as="geometry">
            <mxPoint x="813" y="150" as="sourcePoint" />
            <mxPoint x="1233" y="150" as="targetPoint" />
          </mxGeometry>
        </mxCell>
        <mxCell id="QP1Ot8ZAfSgMZhXPvZnd-40" value="Shelf" style="rounded=1;whiteSpace=wrap;html=1;labelBackgroundColor=none;fillColor=#B2C9AB;strokeColor=#788AA3;fontColor=#46495D;fontStyle=1" parent="1" vertex="1">
          <mxGeometry x="953" y="135" width="50" height="30" as="geometry" />
        </mxCell>
        <mxCell id="QP1Ot8ZAfSgMZhXPvZnd-43" value="" style="edgeStyle=orthogonalEdgeStyle;shape=connector;rounded=0;orthogonalLoop=1;jettySize=auto;html=1;exitX=1;exitY=0.5;exitDx=0;exitDy=0;entryX=0;entryY=0.5;entryDx=0;entryDy=0;strokeColor=#788AA3;align=center;verticalAlign=middle;fontFamily=Helvetica;fontSize=11;fontColor=default;labelBackgroundColor=none;startFill=0;endArrow=none;fontStyle=1" parent="1" source="QP1Ot8ZAfSgMZhXPvZnd-25" target="QP1Ot8ZAfSgMZhXPvZnd-42" edge="1">
          <mxGeometry relative="1" as="geometry">
            <mxPoint x="695" y="150" as="sourcePoint" />
            <mxPoint x="915" y="150" as="targetPoint" />
          </mxGeometry>
        </mxCell>
        <mxCell id="QP1Ot8ZAfSgMZhXPvZnd-42" value="stored on" style="rhombus;whiteSpace=wrap;html=1;strokeColor=#788AA3;fontFamily=Helvetica;fontSize=11;fontColor=#46495D;labelBackgroundColor=none;fillColor=#B2C9AB;fontStyle=1" parent="1" vertex="1">
          <mxGeometry x="780" y="135" width="70" height="30" as="geometry" />
        </mxCell>
        <mxCell id="QP1Ot8ZAfSgMZhXPvZnd-50" style="edgeStyle=orthogonalEdgeStyle;shape=connector;rounded=0;orthogonalLoop=1;jettySize=auto;html=1;exitX=1;exitY=0.5;exitDx=0;exitDy=0;entryX=0;entryY=0.75;entryDx=0;entryDy=0;strokeColor=#788AA3;align=center;verticalAlign=middle;fontFamily=Helvetica;fontSize=11;fontColor=default;labelBackgroundColor=none;startFill=0;endArrow=none;fillColor=#B2C9AB;fontStyle=1" parent="1" source="QP1Ot8ZAfSgMZhXPvZnd-48" target="QP1Ot8ZAfSgMZhXPvZnd-19" edge="1">
          <mxGeometry relative="1" as="geometry">
            <Array as="points">
              <mxPoint x="603" y="90" />
              <mxPoint x="603" y="20" />
              <mxPoint x="700" y="20" />
            </Array>
          </mxGeometry>
        </mxCell>
        <mxCell id="QP1Ot8ZAfSgMZhXPvZnd-48" value="reserve" style="rhombus;whiteSpace=wrap;html=1;strokeColor=#788AA3;fontFamily=Helvetica;fontSize=11;fontColor=#46495D;labelBackgroundColor=none;fillColor=#B2C9AB;fontStyle=1" parent="1" vertex="1">
          <mxGeometry x="445" y="75" width="60" height="30" as="geometry" />
        </mxCell>
        <mxCell id="QP1Ot8ZAfSgMZhXPvZnd-56" value="" style="edgeStyle=orthogonalEdgeStyle;shape=connector;rounded=0;orthogonalLoop=1;jettySize=auto;html=1;exitX=0.5;exitY=1;exitDx=0;exitDy=0;entryX=0.5;entryY=0;entryDx=0;entryDy=0;strokeColor=#788AA3;align=center;verticalAlign=middle;fontFamily=Helvetica;fontSize=11;fontColor=default;labelBackgroundColor=none;startFill=0;endArrow=none;fontStyle=1" parent="1" source="QP1Ot8ZAfSgMZhXPvZnd-8" target="QP1Ot8ZAfSgMZhXPvZnd-55" edge="1">
          <mxGeometry relative="1" as="geometry">
            <mxPoint x="235" y="70" as="sourcePoint" />
            <mxPoint x="235" y="120" as="targetPoint" />
          </mxGeometry>
        </mxCell>
        <mxCell id="QP1Ot8ZAfSgMZhXPvZnd-55" value="&amp;nbsp;multiblications of" style="rhombus;whiteSpace=wrap;html=1;strokeColor=#788AA3;fontFamily=Helvetica;fontSize=11;fontColor=#46495D;labelBackgroundColor=none;fillColor=#B2C9AB;fontStyle=1" parent="1" vertex="1">
          <mxGeometry x="175" y="80" width="120" height="30" as="geometry" />
        </mxCell>
        <mxCell id="2SzFF_72ARvEB5GiTpjh-52" style="edgeStyle=orthogonalEdgeStyle;shape=connector;rounded=0;orthogonalLoop=1;jettySize=auto;html=1;exitX=0;exitY=1;exitDx=0;exitDy=0;strokeColor=#788AA3;align=center;verticalAlign=middle;fontFamily=Helvetica;fontSize=11;fontColor=default;labelBackgroundColor=none;startFill=0;endArrow=none;fillColor=#B2C9AB;entryX=0;entryY=0.5;entryDx=0;entryDy=0;fontStyle=1" edge="1" parent="1" source="QP1Ot8ZAfSgMZhXPvZnd-57" target="2SzFF_72ARvEB5GiTpjh-43">
          <mxGeometry relative="1" as="geometry" />
        </mxCell>
        <mxCell id="QP1Ot8ZAfSgMZhXPvZnd-57" value="Keyword" style="rounded=1;whiteSpace=wrap;html=1;labelBackgroundColor=none;fillColor=#B2C9AB;strokeColor=#788AA3;fontColor=#46495D;fontStyle=1" parent="1" vertex="1">
          <mxGeometry x="979.97" y="315" width="80" height="30" as="geometry" />
        </mxCell>
        <mxCell id="QP1Ot8ZAfSgMZhXPvZnd-60" value="" style="edgeStyle=orthogonalEdgeStyle;shape=connector;rounded=0;orthogonalLoop=1;jettySize=auto;html=1;exitX=0.5;exitY=1;exitDx=0;exitDy=0;entryX=0.5;entryY=0;entryDx=0;entryDy=0;strokeColor=#788AA3;align=center;verticalAlign=middle;fontFamily=Helvetica;fontSize=11;fontColor=default;labelBackgroundColor=none;startFill=0;endArrow=none;fillColor=#B2C9AB;fontStyle=1" parent="1" source="QP1Ot8ZAfSgMZhXPvZnd-40" target="QP1Ot8ZAfSgMZhXPvZnd-59" edge="1">
          <mxGeometry relative="1" as="geometry">
            <mxPoint x="813" y="180" as="sourcePoint" />
            <mxPoint x="873" y="260" as="targetPoint" />
          </mxGeometry>
        </mxCell>
        <mxCell id="QP1Ot8ZAfSgMZhXPvZnd-59" value="searched by" style="rhombus;whiteSpace=wrap;html=1;strokeColor=#788AA3;fontFamily=Helvetica;fontSize=11;fontColor=#46495D;labelBackgroundColor=none;fillColor=#B2C9AB;fontStyle=1" parent="1" vertex="1">
          <mxGeometry x="938" y="205" width="80" height="30" as="geometry" />
        </mxCell>
        <mxCell id="QP1Ot8ZAfSgMZhXPvZnd-66" style="edgeStyle=orthogonalEdgeStyle;shape=connector;rounded=0;orthogonalLoop=1;jettySize=auto;html=1;entryX=0;entryY=0.5;entryDx=0;entryDy=0;strokeColor=#788AA3;align=center;verticalAlign=middle;fontFamily=Helvetica;fontSize=11;fontColor=default;labelBackgroundColor=none;startFill=0;endArrow=none;fillColor=#B2C9AB;fontStyle=1" parent="1" source="QP1Ot8ZAfSgMZhXPvZnd-65" target="QP1Ot8ZAfSgMZhXPvZnd-1" edge="1">
          <mxGeometry relative="1" as="geometry" />
        </mxCell>
        <mxCell id="QP1Ot8ZAfSgMZhXPvZnd-65" value="&lt;u&gt;ISBN&lt;/u&gt;" style="rounded=1;whiteSpace=wrap;html=1;labelBackgroundColor=none;fillColor=#B2C9AB;strokeColor=#788AA3;fontColor=#46495D;shape=ellipse;perimeter=ellipsePerimeter;fontStyle=1" parent="1" vertex="1">
          <mxGeometry x="20" y="150" width="50" height="30" as="geometry" />
        </mxCell>
        <mxCell id="2SzFF_72ARvEB5GiTpjh-10" style="edgeStyle=orthogonalEdgeStyle;shape=connector;rounded=0;orthogonalLoop=1;jettySize=auto;html=1;exitX=0;exitY=0.5;exitDx=0;exitDy=0;entryX=1;entryY=0.5;entryDx=0;entryDy=0;strokeColor=#788AA3;align=center;verticalAlign=middle;fontFamily=Helvetica;fontSize=11;fontColor=default;labelBackgroundColor=none;startFill=0;endArrow=none;fillColor=#B2C9AB;fontStyle=1" edge="1" parent="1" source="QP1Ot8ZAfSgMZhXPvZnd-67" target="2SzFF_72ARvEB5GiTpjh-9">
          <mxGeometry relative="1" as="geometry" />
        </mxCell>
        <mxCell id="QP1Ot8ZAfSgMZhXPvZnd-67" value="Borrowing and Returning" style="rounded=1;whiteSpace=wrap;html=1;labelBackgroundColor=none;fillColor=#B2C9AB;strokeColor=#788AA3;fontColor=#46495D;fontStyle=1" parent="1" vertex="1">
          <mxGeometry x="340" y="-35" width="150" height="30" as="geometry" />
        </mxCell>
        <mxCell id="2SzFF_72ARvEB5GiTpjh-15" style="edgeStyle=orthogonalEdgeStyle;shape=connector;rounded=0;orthogonalLoop=1;jettySize=auto;html=1;exitX=0.5;exitY=0;exitDx=0;exitDy=0;entryX=0.5;entryY=1;entryDx=0;entryDy=0;strokeColor=#788AA3;align=center;verticalAlign=middle;fontFamily=Helvetica;fontSize=11;fontColor=default;labelBackgroundColor=none;startFill=0;endArrow=none;fillColor=#B2C9AB;fontStyle=1" edge="1" parent="1" source="2SzFF_72ARvEB5GiTpjh-1" target="QP1Ot8ZAfSgMZhXPvZnd-38">
          <mxGeometry relative="1" as="geometry" />
        </mxCell>
        <mxCell id="2SzFF_72ARvEB5GiTpjh-1" value="responsible for" style="rhombus;whiteSpace=wrap;html=1;strokeColor=#788AA3;fontFamily=Helvetica;fontSize=11;fontColor=#46495D;labelBackgroundColor=none;fillColor=#B2C9AB;fontStyle=1" vertex="1" parent="1">
          <mxGeometry x="365" y="-90" width="100" height="30" as="geometry" />
        </mxCell>
        <mxCell id="2SzFF_72ARvEB5GiTpjh-4" value="" style="edgeStyle=orthogonalEdgeStyle;rounded=0;orthogonalLoop=1;jettySize=auto;html=1;exitX=1;exitY=0.5;exitDx=0;exitDy=0;entryX=0;entryY=0.5;entryDx=0;entryDy=0;strokeColor=#788AA3;fontColor=default;fillColor=#B2C9AB;endArrow=none;startFill=0;labelBackgroundColor=none;fontStyle=1" edge="1" parent="1" source="QP1Ot8ZAfSgMZhXPvZnd-8" target="2SzFF_72ARvEB5GiTpjh-3">
          <mxGeometry relative="1" as="geometry">
            <mxPoint x="340" y="-20" as="targetPoint" />
            <mxPoint x="265" y="40" as="sourcePoint" />
          </mxGeometry>
        </mxCell>
        <mxCell id="2SzFF_72ARvEB5GiTpjh-3" value="can be" style="rhombus;whiteSpace=wrap;html=1;strokeColor=#788AA3;fontFamily=Helvetica;fontSize=11;fontColor=#46495D;labelBackgroundColor=none;fillColor=#B2C9AB;fontStyle=1" vertex="1" parent="1">
          <mxGeometry x="315" y="25" width="60" height="30" as="geometry" />
        </mxCell>
        <mxCell id="2SzFF_72ARvEB5GiTpjh-6" value="" style="edgeStyle=orthogonalEdgeStyle;shape=connector;rounded=0;orthogonalLoop=1;jettySize=auto;html=1;exitX=1;exitY=0.5;exitDx=0;exitDy=0;entryX=0;entryY=0.5;entryDx=0;entryDy=0;strokeColor=#788AA3;align=center;verticalAlign=middle;fontFamily=Helvetica;fontSize=11;fontColor=default;labelBackgroundColor=none;startFill=0;endArrow=none;fillColor=#B2C9AB;fontStyle=1" edge="1" parent="1" source="QP1Ot8ZAfSgMZhXPvZnd-67" target="2SzFF_72ARvEB5GiTpjh-5">
          <mxGeometry relative="1" as="geometry">
            <mxPoint x="487" y="-24" as="sourcePoint" />
            <mxPoint x="600" y="-60" as="targetPoint" />
          </mxGeometry>
        </mxCell>
        <mxCell id="2SzFF_72ARvEB5GiTpjh-5" value="carried out by" style="rhombus;whiteSpace=wrap;html=1;strokeColor=#788AA3;fontFamily=Helvetica;fontSize=11;fontColor=#46495D;labelBackgroundColor=none;fillColor=#B2C9AB;fontStyle=1" vertex="1" parent="1">
          <mxGeometry x="540" y="-35" width="90" height="30" as="geometry" />
        </mxCell>
        <mxCell id="2SzFF_72ARvEB5GiTpjh-7" value="&lt;u&gt;Copy ID&lt;/u&gt;" style="rounded=1;whiteSpace=wrap;html=1;labelBackgroundColor=none;fillColor=#B2C9AB;strokeColor=#788AA3;fontColor=#46495D;shape=ellipse;perimeter=ellipsePerimeter;fontStyle=1" vertex="1" parent="1">
          <mxGeometry x="100" y="25" width="70" height="30" as="geometry" />
        </mxCell>
        <mxCell id="2SzFF_72ARvEB5GiTpjh-9" value="borrowing date" style="rounded=1;whiteSpace=wrap;html=1;labelBackgroundColor=none;fillColor=#B2C9AB;strokeColor=#788AA3;fontColor=#46495D;shape=ellipse;perimeter=ellipsePerimeter;fontStyle=1" vertex="1" parent="1">
          <mxGeometry x="185" y="-110" width="100" height="30" as="geometry" />
        </mxCell>
        <mxCell id="2SzFF_72ARvEB5GiTpjh-12" value="" style="edgeStyle=orthogonalEdgeStyle;shape=connector;rounded=0;orthogonalLoop=1;jettySize=auto;html=1;strokeColor=#788AA3;align=center;verticalAlign=middle;fontFamily=Helvetica;fontSize=11;fontColor=default;labelBackgroundColor=none;startFill=0;endArrow=none;fillColor=#B2C9AB;entryX=0;entryY=0.5;entryDx=0;entryDy=0;fontStyle=1" edge="1" parent="1" source="2SzFF_72ARvEB5GiTpjh-11" target="QP1Ot8ZAfSgMZhXPvZnd-67">
          <mxGeometry relative="1" as="geometry">
            <mxPoint x="335" y="-20" as="targetPoint" />
          </mxGeometry>
        </mxCell>
        <mxCell id="2SzFF_72ARvEB5GiTpjh-11" value="return date" style="rounded=1;whiteSpace=wrap;html=1;labelBackgroundColor=none;fillColor=#B2C9AB;strokeColor=#788AA3;fontColor=#46495D;shape=ellipse;perimeter=ellipsePerimeter;fontStyle=1" vertex="1" parent="1">
          <mxGeometry x="205" y="-70" width="80" height="30" as="geometry" />
        </mxCell>
        <mxCell id="2SzFF_72ARvEB5GiTpjh-19" value="" style="edgeStyle=orthogonalEdgeStyle;shape=connector;rounded=0;orthogonalLoop=1;jettySize=auto;html=1;strokeColor=#788AA3;align=center;verticalAlign=middle;fontFamily=Helvetica;fontSize=11;fontColor=default;labelBackgroundColor=none;startFill=0;endArrow=none;fillColor=#B2C9AB;entryX=0;entryY=0.5;entryDx=0;entryDy=0;fontStyle=1" edge="1" parent="1" source="2SzFF_72ARvEB5GiTpjh-18" target="QP1Ot8ZAfSgMZhXPvZnd-67">
          <mxGeometry relative="1" as="geometry" />
        </mxCell>
        <mxCell id="2SzFF_72ARvEB5GiTpjh-18" value="&lt;u&gt;Borrowing ID&lt;/u&gt;" style="rounded=1;whiteSpace=wrap;html=1;labelBackgroundColor=none;fillColor=#B2C9AB;strokeColor=#788AA3;fontColor=#46495D;shape=ellipse;perimeter=ellipsePerimeter;fontStyle=1" vertex="1" parent="1">
          <mxGeometry x="200" y="-35" width="90" height="30" as="geometry" />
        </mxCell>
        <mxCell id="2SzFF_72ARvEB5GiTpjh-21" value="" style="edgeStyle=orthogonalEdgeStyle;shape=connector;rounded=0;orthogonalLoop=1;jettySize=auto;html=1;strokeColor=#788AA3;align=center;verticalAlign=middle;fontFamily=Helvetica;fontSize=11;fontColor=default;labelBackgroundColor=none;startFill=0;endArrow=none;fillColor=#B2C9AB;entryX=0;entryY=0.5;entryDx=0;entryDy=0;fontStyle=1" edge="1" parent="1" source="2SzFF_72ARvEB5GiTpjh-20" target="QP1Ot8ZAfSgMZhXPvZnd-38">
          <mxGeometry relative="1" as="geometry" />
        </mxCell>
        <mxCell id="2SzFF_72ARvEB5GiTpjh-20" value="&lt;u&gt;Employee ID&lt;/u&gt;" style="rounded=1;whiteSpace=wrap;html=1;labelBackgroundColor=none;fillColor=#B2C9AB;strokeColor=#788AA3;fontColor=#46495D;shape=ellipse;perimeter=ellipsePerimeter;fontStyle=1" vertex="1" parent="1">
          <mxGeometry x="220" y="-190" width="90" height="30" as="geometry" />
        </mxCell>
        <mxCell id="2SzFF_72ARvEB5GiTpjh-23" value="" style="edgeStyle=orthogonalEdgeStyle;shape=connector;rounded=0;orthogonalLoop=1;jettySize=auto;html=1;strokeColor=#788AA3;align=center;verticalAlign=middle;fontFamily=Helvetica;fontSize=11;fontColor=default;labelBackgroundColor=none;startFill=0;endArrow=none;fillColor=#B2C9AB;entryX=0;entryY=0.5;entryDx=0;entryDy=0;fontStyle=1" edge="1" parent="1" source="2SzFF_72ARvEB5GiTpjh-22" target="QP1Ot8ZAfSgMZhXPvZnd-38">
          <mxGeometry relative="1" as="geometry" />
        </mxCell>
        <mxCell id="2SzFF_72ARvEB5GiTpjh-22" value="resposibility" style="rounded=1;whiteSpace=wrap;html=1;labelBackgroundColor=none;fillColor=#B2C9AB;strokeColor=#788AA3;fontColor=#46495D;shape=ellipse;perimeter=ellipsePerimeter;fontStyle=1" vertex="1" parent="1">
          <mxGeometry x="220" y="-150" width="90" height="30" as="geometry" />
        </mxCell>
        <mxCell id="2SzFF_72ARvEB5GiTpjh-25" value="" style="edgeStyle=orthogonalEdgeStyle;shape=connector;rounded=0;orthogonalLoop=1;jettySize=auto;html=1;strokeColor=#788AA3;align=center;verticalAlign=middle;fontFamily=Helvetica;fontSize=11;fontColor=default;labelBackgroundColor=none;startFill=0;endArrow=none;fillColor=#B2C9AB;entryX=1;entryY=0.5;entryDx=0;entryDy=0;fontStyle=1" edge="1" parent="1" source="2SzFF_72ARvEB5GiTpjh-24" target="QP1Ot8ZAfSgMZhXPvZnd-19">
          <mxGeometry relative="1" as="geometry" />
        </mxCell>
        <mxCell id="2SzFF_72ARvEB5GiTpjh-24" value="&lt;u&gt;Customer ID&lt;/u&gt;" style="rounded=1;whiteSpace=wrap;html=1;labelBackgroundColor=none;fillColor=#B2C9AB;strokeColor=#788AA3;fontColor=#46495D;shape=ellipse;perimeter=ellipsePerimeter;fontStyle=1" vertex="1" parent="1">
          <mxGeometry x="835" y="-65" width="90" height="30" as="geometry" />
        </mxCell>
        <mxCell id="2SzFF_72ARvEB5GiTpjh-31" value="" style="edgeStyle=orthogonalEdgeStyle;shape=connector;rounded=0;orthogonalLoop=1;jettySize=auto;html=1;strokeColor=#788AA3;align=center;verticalAlign=middle;fontFamily=Helvetica;fontSize=11;fontColor=default;labelBackgroundColor=none;startFill=0;endArrow=none;fillColor=#B2C9AB;entryX=1;entryY=0.5;entryDx=0;entryDy=0;fontStyle=1" edge="1" parent="1" source="2SzFF_72ARvEB5GiTpjh-26" target="QP1Ot8ZAfSgMZhXPvZnd-19">
          <mxGeometry relative="1" as="geometry" />
        </mxCell>
        <mxCell id="2SzFF_72ARvEB5GiTpjh-26" value="Name" style="rounded=1;whiteSpace=wrap;html=1;labelBackgroundColor=none;fillColor=#B2C9AB;strokeColor=#788AA3;fontColor=#46495D;shape=ellipse;perimeter=ellipsePerimeter;fontStyle=1" vertex="1" parent="1">
          <mxGeometry x="835" y="-35" width="60" height="30" as="geometry" />
        </mxCell>
        <mxCell id="2SzFF_72ARvEB5GiTpjh-30" style="edgeStyle=orthogonalEdgeStyle;shape=connector;rounded=0;orthogonalLoop=1;jettySize=auto;html=1;exitX=1;exitY=0.5;exitDx=0;exitDy=0;entryX=0;entryY=0.5;entryDx=0;entryDy=0;strokeColor=#788AA3;align=center;verticalAlign=middle;fontFamily=Helvetica;fontSize=11;fontColor=default;labelBackgroundColor=none;startFill=0;endArrow=none;fillColor=#B2C9AB;fontStyle=1" edge="1" parent="1" source="2SzFF_72ARvEB5GiTpjh-27" target="QP1Ot8ZAfSgMZhXPvZnd-38">
          <mxGeometry relative="1" as="geometry" />
        </mxCell>
        <mxCell id="2SzFF_72ARvEB5GiTpjh-27" value="Name" style="rounded=1;whiteSpace=wrap;html=1;labelBackgroundColor=none;fillColor=#B2C9AB;strokeColor=#788AA3;fontColor=#46495D;shape=ellipse;perimeter=ellipsePerimeter;fontStyle=1" vertex="1" parent="1">
          <mxGeometry x="250" y="-230" width="60" height="30" as="geometry" />
        </mxCell>
        <mxCell id="2SzFF_72ARvEB5GiTpjh-28" value="published in" style="rhombus;whiteSpace=wrap;html=1;strokeColor=#788AA3;fontFamily=Helvetica;fontSize=11;fontColor=#46495D;labelBackgroundColor=none;fillColor=#B2C9AB;fontStyle=1" vertex="1" parent="1">
          <mxGeometry x="405" y="260" width="80" height="30" as="geometry" />
        </mxCell>
        <mxCell id="2SzFF_72ARvEB5GiTpjh-35" value="Subject area" style="rounded=1;whiteSpace=wrap;html=1;labelBackgroundColor=none;fillColor=#B2C9AB;strokeColor=#788AA3;fontColor=#46495D;shape=ellipse;perimeter=ellipsePerimeter;fontStyle=1" vertex="1" parent="1">
          <mxGeometry x="1073" y="90" width="90" height="30" as="geometry" />
        </mxCell>
        <mxCell id="2SzFF_72ARvEB5GiTpjh-37" value="" style="edgeStyle=orthogonalEdgeStyle;shape=connector;rounded=0;orthogonalLoop=1;jettySize=auto;html=1;strokeColor=#788AA3;align=center;verticalAlign=middle;fontFamily=Helvetica;fontSize=11;fontColor=default;labelBackgroundColor=none;startFill=0;endArrow=none;fillColor=#B2C9AB;fontStyle=1" edge="1" parent="1" source="2SzFF_72ARvEB5GiTpjh-36" target="QP1Ot8ZAfSgMZhXPvZnd-40">
          <mxGeometry relative="1" as="geometry" />
        </mxCell>
        <mxCell id="2SzFF_72ARvEB5GiTpjh-36" value="location" style="rounded=1;whiteSpace=wrap;html=1;labelBackgroundColor=none;fillColor=#B2C9AB;strokeColor=#788AA3;fontColor=#46495D;shape=ellipse;perimeter=ellipsePerimeter;fontStyle=1" vertex="1" parent="1">
          <mxGeometry x="1073" y="120" width="60" height="30" as="geometry" />
        </mxCell>
        <mxCell id="2SzFF_72ARvEB5GiTpjh-39" value="" style="edgeStyle=orthogonalEdgeStyle;shape=connector;rounded=0;orthogonalLoop=1;jettySize=auto;html=1;strokeColor=#788AA3;align=center;verticalAlign=middle;fontFamily=Helvetica;fontSize=11;fontColor=default;labelBackgroundColor=none;startFill=0;endArrow=none;fillColor=#B2C9AB;fontStyle=1" edge="1" parent="1" source="2SzFF_72ARvEB5GiTpjh-38" target="QP1Ot8ZAfSgMZhXPvZnd-40">
          <mxGeometry relative="1" as="geometry" />
        </mxCell>
        <mxCell id="2SzFF_72ARvEB5GiTpjh-38" value="&lt;u&gt;shelf ID&lt;/u&gt;" style="rounded=1;whiteSpace=wrap;html=1;labelBackgroundColor=none;fillColor=#B2C9AB;strokeColor=#788AA3;fontColor=#46495D;shape=ellipse;perimeter=ellipsePerimeter;fontStyle=1" vertex="1" parent="1">
          <mxGeometry x="1073" y="150" width="60" height="30" as="geometry" />
        </mxCell>
        <mxCell id="2SzFF_72ARvEB5GiTpjh-43" value="Synonyme" style="shape=rhombus;perimeter=rhombusPerimeter;whiteSpace=wrap;html=1;align=center;fontFamily=Helvetica;fontSize=11;fontColor=#46495D;labelBackgroundColor=none;fillColor=#B2C9AB;strokeColor=#788AA3;fontStyle=1" vertex="1" parent="1">
          <mxGeometry x="989.97" y="380" width="80" height="30" as="geometry" />
        </mxCell>
        <mxCell id="2SzFF_72ARvEB5GiTpjh-47" value="" style="edgeStyle=orthogonalEdgeStyle;shape=connector;rounded=0;orthogonalLoop=1;jettySize=auto;html=1;strokeColor=#788AA3;align=center;verticalAlign=middle;fontFamily=Helvetica;fontSize=11;fontColor=default;labelBackgroundColor=none;startFill=0;endArrow=none;fillColor=#B2C9AB;entryX=1;entryY=0.5;entryDx=0;entryDy=0;fontStyle=1" edge="1" parent="1" source="2SzFF_72ARvEB5GiTpjh-46" target="QP1Ot8ZAfSgMZhXPvZnd-19">
          <mxGeometry relative="1" as="geometry" />
        </mxCell>
        <mxCell id="2SzFF_72ARvEB5GiTpjh-46" value="adress" style="rounded=1;whiteSpace=wrap;html=1;labelBackgroundColor=none;fillColor=#B2C9AB;strokeColor=#788AA3;fontColor=#46495D;shape=ellipse;perimeter=ellipsePerimeter;fontStyle=1" vertex="1" parent="1">
          <mxGeometry x="835" y="-5" width="60" height="30" as="geometry" />
        </mxCell>
        <mxCell id="2SzFF_72ARvEB5GiTpjh-49" style="edgeStyle=orthogonalEdgeStyle;shape=connector;rounded=0;orthogonalLoop=1;jettySize=auto;html=1;exitX=0;exitY=0.5;exitDx=0;exitDy=0;strokeColor=#788AA3;align=center;verticalAlign=middle;fontFamily=Helvetica;fontSize=11;fontColor=default;labelBackgroundColor=none;startFill=0;endArrow=none;fillColor=#B2C9AB;fontStyle=1" edge="1" parent="1" source="2SzFF_72ARvEB5GiTpjh-48" target="QP1Ot8ZAfSgMZhXPvZnd-57">
          <mxGeometry relative="1" as="geometry" />
        </mxCell>
        <mxCell id="2SzFF_72ARvEB5GiTpjh-48" value="relevance" style="rounded=1;whiteSpace=wrap;html=1;labelBackgroundColor=none;fillColor=#B2C9AB;strokeColor=#788AA3;fontColor=#46495D;shape=ellipse;perimeter=ellipsePerimeter;fontStyle=1" vertex="1" parent="1">
          <mxGeometry x="1106.97" y="290" width="80" height="30" as="geometry" />
        </mxCell>
        <mxCell id="2SzFF_72ARvEB5GiTpjh-58" value="reference" style="rounded=1;whiteSpace=wrap;html=1;labelBackgroundColor=none;fillColor=#B2C9AB;strokeColor=#788AA3;fontColor=#46495D;shape=rhombus;arcSize=10;perimeter=rhombusPerimeter;fontStyle=1" vertex="1" parent="1">
          <mxGeometry x="410" y="445" width="70" height="30" as="geometry" />
        </mxCell>
        <mxCell id="2SzFF_72ARvEB5GiTpjh-64" value="" style="edgeStyle=orthogonalEdgeStyle;shape=connector;rounded=0;orthogonalLoop=1;jettySize=auto;html=1;strokeColor=#788AA3;align=center;verticalAlign=middle;fontFamily=Helvetica;fontSize=11;fontColor=default;labelBackgroundColor=none;startFill=0;endArrow=none;fillColor=#B2C9AB;entryX=1;entryY=0.5;entryDx=0;entryDy=0;fontStyle=1" edge="1" parent="1" source="2SzFF_72ARvEB5GiTpjh-62" target="QP1Ot8ZAfSgMZhXPvZnd-2">
          <mxGeometry relative="1" as="geometry" />
        </mxCell>
        <mxCell id="2SzFF_72ARvEB5GiTpjh-62" value="Name" style="ellipse;whiteSpace=wrap;html=1;align=center;strokeColor=#788AA3;fontFamily=Helvetica;fontSize=11;fontColor=default;labelBackgroundColor=none;fillColor=#B2C9AB;fontStyle=1" vertex="1" parent="1">
          <mxGeometry x="525" y="180" width="50" height="30" as="geometry" />
        </mxCell>
        <mxCell id="2SzFF_72ARvEB5GiTpjh-65" style="edgeStyle=orthogonalEdgeStyle;shape=connector;rounded=0;orthogonalLoop=1;jettySize=auto;html=1;entryX=1;entryY=0.5;entryDx=0;entryDy=0;strokeColor=#788AA3;align=center;verticalAlign=middle;fontFamily=Helvetica;fontSize=11;fontColor=default;labelBackgroundColor=none;startFill=0;endArrow=none;fillColor=#B2C9AB;fontStyle=1" edge="1" parent="1" source="2SzFF_72ARvEB5GiTpjh-63" target="QP1Ot8ZAfSgMZhXPvZnd-2">
          <mxGeometry relative="1" as="geometry" />
        </mxCell>
        <mxCell id="2SzFF_72ARvEB5GiTpjh-63" value="&lt;u&gt;Journal ID&lt;/u&gt;" style="ellipse;whiteSpace=wrap;html=1;align=center;strokeColor=#788AA3;fontFamily=Helvetica;fontSize=11;fontColor=default;labelBackgroundColor=none;fillColor=#B2C9AB;fontStyle=1" vertex="1" parent="1">
          <mxGeometry x="525" y="210" width="70" height="30" as="geometry" />
        </mxCell>
        <mxCell id="2SzFF_72ARvEB5GiTpjh-67" style="edgeStyle=orthogonalEdgeStyle;shape=connector;rounded=0;orthogonalLoop=1;jettySize=auto;html=1;entryX=1;entryY=0.5;entryDx=0;entryDy=0;strokeColor=#788AA3;align=center;verticalAlign=middle;fontFamily=Helvetica;fontSize=11;fontColor=default;labelBackgroundColor=none;startFill=0;endArrow=none;fillColor=#B2C9AB;fontStyle=1" edge="1" parent="1" source="2SzFF_72ARvEB5GiTpjh-66" target="QP1Ot8ZAfSgMZhXPvZnd-4">
          <mxGeometry relative="1" as="geometry" />
        </mxCell>
        <mxCell id="2SzFF_72ARvEB5GiTpjh-66" value="&lt;u&gt;article ID&lt;/u&gt;" style="ellipse;whiteSpace=wrap;html=1;align=center;strokeColor=#788AA3;fontFamily=Helvetica;fontSize=11;fontColor=default;labelBackgroundColor=none;fillColor=#B2C9AB;fontStyle=1" vertex="1" parent="1">
          <mxGeometry x="505" y="325" width="70" height="30" as="geometry" />
        </mxCell>
        <mxCell id="2SzFF_72ARvEB5GiTpjh-69" style="edgeStyle=orthogonalEdgeStyle;shape=connector;rounded=0;orthogonalLoop=1;jettySize=auto;html=1;strokeColor=#788AA3;align=center;verticalAlign=middle;fontFamily=Helvetica;fontSize=11;fontColor=default;labelBackgroundColor=none;startFill=0;endArrow=none;fillColor=#B2C9AB;fontStyle=1" edge="1" parent="1" source="2SzFF_72ARvEB5GiTpjh-68" target="QP1Ot8ZAfSgMZhXPvZnd-4">
          <mxGeometry relative="1" as="geometry" />
        </mxCell>
        <mxCell id="2SzFF_72ARvEB5GiTpjh-68" value="Topic" style="ellipse;whiteSpace=wrap;html=1;align=center;strokeColor=#788AA3;fontFamily=Helvetica;fontSize=11;fontColor=default;labelBackgroundColor=none;fillColor=#B2C9AB;fontStyle=1" vertex="1" parent="1">
          <mxGeometry x="515" y="355" width="50" height="30" as="geometry" />
        </mxCell>
        <mxCell id="2SzFF_72ARvEB5GiTpjh-72" style="edgeStyle=orthogonalEdgeStyle;shape=connector;rounded=0;orthogonalLoop=1;jettySize=auto;html=1;entryX=1;entryY=1;entryDx=0;entryDy=0;strokeColor=#788AA3;align=center;verticalAlign=middle;fontFamily=Helvetica;fontSize=11;fontColor=default;labelBackgroundColor=none;startFill=0;endArrow=none;fillColor=#B2C9AB;fontStyle=1" edge="1" parent="1" source="2SzFF_72ARvEB5GiTpjh-71" target="QP1Ot8ZAfSgMZhXPvZnd-25">
          <mxGeometry relative="1" as="geometry" />
        </mxCell>
        <mxCell id="2SzFF_72ARvEB5GiTpjh-71" value="Publication ID" style="ellipse;whiteSpace=wrap;html=1;align=center;fontStyle=5;strokeColor=#788AA3;fontFamily=Helvetica;fontSize=11;fontColor=default;labelBackgroundColor=none;fillColor=#B2C9AB;" vertex="1" parent="1">
          <mxGeometry x="700" y="188" width="90" height="30" as="geometry" />
        </mxCell>
        <mxCell id="2SzFF_72ARvEB5GiTpjh-74" style="edgeStyle=orthogonalEdgeStyle;shape=connector;rounded=0;orthogonalLoop=1;jettySize=auto;html=1;strokeColor=#788AA3;align=center;verticalAlign=middle;fontFamily=Helvetica;fontSize=11;fontColor=default;labelBackgroundColor=none;startFill=0;endArrow=none;fillColor=#B2C9AB;" edge="1" parent="1" source="2SzFF_72ARvEB5GiTpjh-73" target="QP1Ot8ZAfSgMZhXPvZnd-6">
          <mxGeometry relative="1" as="geometry" />
        </mxCell>
        <mxCell id="2SzFF_72ARvEB5GiTpjh-73" value="Name" style="ellipse;whiteSpace=wrap;html=1;align=center;strokeColor=#788AA3;fontFamily=Helvetica;fontSize=11;fontColor=default;labelBackgroundColor=none;fillColor=#B2C9AB;" vertex="1" parent="1">
          <mxGeometry x="820" y="315" width="50" height="30" as="geometry" />
        </mxCell>
        <mxCell id="2SzFF_72ARvEB5GiTpjh-76" style="edgeStyle=orthogonalEdgeStyle;shape=connector;rounded=0;orthogonalLoop=1;jettySize=auto;html=1;entryX=1;entryY=0.5;entryDx=0;entryDy=0;strokeColor=#788AA3;align=center;verticalAlign=middle;fontFamily=Helvetica;fontSize=11;fontColor=default;labelBackgroundColor=none;startFill=0;endArrow=none;fillColor=#B2C9AB;" edge="1" parent="1" source="2SzFF_72ARvEB5GiTpjh-75" target="QP1Ot8ZAfSgMZhXPvZnd-6">
          <mxGeometry relative="1" as="geometry" />
        </mxCell>
        <mxCell id="2SzFF_72ARvEB5GiTpjh-75" value="&lt;u&gt;Authors ID&lt;/u&gt;" style="ellipse;whiteSpace=wrap;html=1;align=center;strokeColor=#788AA3;fontFamily=Helvetica;fontSize=11;fontColor=default;labelBackgroundColor=none;fillColor=#B2C9AB;" vertex="1" parent="1">
          <mxGeometry x="805" y="365" width="80" height="30" as="geometry" />
        </mxCell>
        <mxCell id="2SzFF_72ARvEB5GiTpjh-77" value="N" style="text;html=1;align=center;verticalAlign=middle;resizable=0;points=[];autosize=1;strokeColor=none;fillColor=none;fontFamily=Helvetica;fontSize=11;fontColor=default;labelBackgroundColor=none;" vertex="1" parent="1">
          <mxGeometry x="135" y="170" width="30" height="30" as="geometry" />
        </mxCell>
        <mxCell id="2SzFF_72ARvEB5GiTpjh-78" value="M" style="text;html=1;align=center;verticalAlign=middle;resizable=0;points=[];autosize=1;strokeColor=none;fillColor=none;fontFamily=Helvetica;fontSize=11;fontColor=default;labelBackgroundColor=none;" vertex="1" parent="1">
          <mxGeometry x="275" y="170" width="30" height="30" as="geometry" />
        </mxCell>
        <mxCell id="2SzFF_72ARvEB5GiTpjh-79" value="1" style="text;html=1;align=center;verticalAlign=middle;resizable=0;points=[];autosize=1;strokeColor=none;fillColor=none;fontFamily=Helvetica;fontSize=11;fontColor=default;labelBackgroundColor=none;" vertex="1" parent="1">
          <mxGeometry x="205" y="108" width="30" height="30" as="geometry" />
        </mxCell>
        <mxCell id="2SzFF_72ARvEB5GiTpjh-80" value="N" style="text;html=1;align=center;verticalAlign=middle;resizable=0;points=[];autosize=1;strokeColor=none;fillColor=none;fontFamily=Helvetica;fontSize=11;fontColor=default;labelBackgroundColor=none;" vertex="1" parent="1">
          <mxGeometry x="205" y="48" width="30" height="30" as="geometry" />
        </mxCell>
        <mxCell id="2SzFF_72ARvEB5GiTpjh-81" value="N" style="text;html=1;align=center;verticalAlign=middle;resizable=0;points=[];autosize=1;strokeColor=none;fillColor=none;fontFamily=Helvetica;fontSize=11;fontColor=default;labelBackgroundColor=none;" vertex="1" parent="1">
          <mxGeometry x="385" y="-12" width="30" height="30" as="geometry" />
        </mxCell>
        <mxCell id="2SzFF_72ARvEB5GiTpjh-83" style="edgeStyle=orthogonalEdgeStyle;shape=connector;rounded=0;orthogonalLoop=1;jettySize=auto;html=1;entryX=1;entryY=0.5;entryDx=0;entryDy=0;strokeColor=#788AA3;align=center;verticalAlign=middle;fontFamily=Helvetica;fontSize=11;fontColor=default;labelBackgroundColor=none;startFill=0;endArrow=none;fillColor=#B2C9AB;" edge="1" parent="1" source="2SzFF_72ARvEB5GiTpjh-82" target="QP1Ot8ZAfSgMZhXPvZnd-57">
          <mxGeometry relative="1" as="geometry" />
        </mxCell>
        <mxCell id="2SzFF_72ARvEB5GiTpjh-82" value="&lt;u&gt;keyword ID&lt;/u&gt;" style="rounded=1;whiteSpace=wrap;html=1;labelBackgroundColor=none;fillColor=#B2C9AB;strokeColor=#788AA3;fontColor=#46495D;shape=ellipse;perimeter=ellipsePerimeter;fontStyle=1" vertex="1" parent="1">
          <mxGeometry x="1106.97" y="338" width="80" height="30" as="geometry" />
        </mxCell>
        <mxCell id="2SzFF_72ARvEB5GiTpjh-84" value="M" style="text;html=1;align=center;verticalAlign=middle;resizable=0;points=[];autosize=1;strokeColor=none;fillColor=none;fontFamily=Helvetica;fontSize=11;fontColor=default;labelBackgroundColor=none;" vertex="1" parent="1">
          <mxGeometry x="265" y="18" width="30" height="30" as="geometry" />
        </mxCell>
        <mxCell id="2SzFF_72ARvEB5GiTpjh-85" value="M" style="text;html=1;align=center;verticalAlign=middle;resizable=0;points=[];autosize=1;strokeColor=none;fillColor=none;fontFamily=Helvetica;fontSize=11;fontColor=default;labelBackgroundColor=none;" vertex="1" parent="1">
          <mxGeometry x="385" y="-132" width="30" height="30" as="geometry" />
        </mxCell>
        <mxCell id="2SzFF_72ARvEB5GiTpjh-86" value="N" style="text;html=1;align=center;verticalAlign=middle;resizable=0;points=[];autosize=1;strokeColor=none;fillColor=none;fontFamily=Helvetica;fontSize=11;fontColor=default;labelBackgroundColor=none;" vertex="1" parent="1">
          <mxGeometry x="385" y="-62" width="30" height="30" as="geometry" />
        </mxCell>
        <mxCell id="2SzFF_72ARvEB5GiTpjh-87" value="1" style="text;html=1;align=center;verticalAlign=middle;resizable=0;points=[];autosize=1;strokeColor=none;fillColor=none;fontFamily=Helvetica;fontSize=11;fontColor=default;labelBackgroundColor=none;" vertex="1" parent="1">
          <mxGeometry x="670" y="-50" width="30" height="30" as="geometry" />
        </mxCell>
        <mxCell id="2SzFF_72ARvEB5GiTpjh-88" value="M" style="text;html=1;align=center;verticalAlign=middle;resizable=0;points=[];autosize=1;strokeColor=none;fillColor=none;fontFamily=Helvetica;fontSize=11;fontColor=default;labelBackgroundColor=none;" vertex="1" parent="1">
          <mxGeometry x="490" y="-52" width="30" height="30" as="geometry" />
        </mxCell>
        <mxCell id="2SzFF_72ARvEB5GiTpjh-89" value="M" style="text;html=1;align=center;verticalAlign=middle;resizable=0;points=[];autosize=1;strokeColor=none;fillColor=none;fontFamily=Helvetica;fontSize=11;fontColor=default;labelBackgroundColor=none;" vertex="1" parent="1">
          <mxGeometry x="645" y="-5" width="30" height="30" as="geometry" />
        </mxCell>
        <mxCell id="2SzFF_72ARvEB5GiTpjh-90" value="N" style="text;html=1;align=center;verticalAlign=middle;resizable=0;points=[];autosize=1;strokeColor=none;fillColor=none;fontFamily=Helvetica;fontSize=11;fontColor=default;labelBackgroundColor=none;" vertex="1" parent="1">
          <mxGeometry x="280" y="110" width="30" height="30" as="geometry" />
        </mxCell>
        <mxCell id="2SzFF_72ARvEB5GiTpjh-91" value="1" style="text;html=1;align=center;verticalAlign=middle;resizable=0;points=[];autosize=1;strokeColor=none;fillColor=none;fontFamily=Helvetica;fontSize=11;fontColor=default;labelBackgroundColor=none;" vertex="1" parent="1">
          <mxGeometry x="925" y="128" width="30" height="30" as="geometry" />
        </mxCell>
        <mxCell id="2SzFF_72ARvEB5GiTpjh-92" value="N" style="text;html=1;align=center;verticalAlign=middle;resizable=0;points=[];autosize=1;strokeColor=none;fillColor=none;fontFamily=Helvetica;fontSize=11;fontColor=default;labelBackgroundColor=none;" vertex="1" parent="1">
          <mxGeometry x="675" y="128" width="30" height="30" as="geometry" />
        </mxCell>
        <mxCell id="2SzFF_72ARvEB5GiTpjh-93" value="N" style="text;html=1;align=center;verticalAlign=middle;resizable=0;points=[];autosize=1;strokeColor=none;fillColor=none;fontFamily=Helvetica;fontSize=11;fontColor=default;labelBackgroundColor=none;" vertex="1" parent="1">
          <mxGeometry x="945" y="288" width="30" height="30" as="geometry" />
        </mxCell>
        <mxCell id="2SzFF_72ARvEB5GiTpjh-94" value="1" style="text;html=1;align=center;verticalAlign=middle;resizable=0;points=[];autosize=1;strokeColor=none;fillColor=none;fontFamily=Helvetica;fontSize=11;fontColor=default;labelBackgroundColor=none;" vertex="1" parent="1">
          <mxGeometry x="949.97" y="165" width="30" height="30" as="geometry" />
        </mxCell>
        <mxCell id="2SzFF_72ARvEB5GiTpjh-95" value="M" style="text;html=1;align=center;verticalAlign=middle;resizable=0;points=[];autosize=1;strokeColor=none;fillColor=none;fontFamily=Helvetica;fontSize=11;fontColor=default;labelBackgroundColor=none;" vertex="1" parent="1">
          <mxGeometry x="945" y="358" width="30" height="30" as="geometry" />
        </mxCell>
        <mxCell id="2SzFF_72ARvEB5GiTpjh-96" style="edgeStyle=orthogonalEdgeStyle;shape=connector;rounded=0;orthogonalLoop=1;jettySize=auto;html=1;exitX=1;exitY=1;exitDx=0;exitDy=0;entryX=0.93;entryY=0.518;entryDx=0;entryDy=0;entryPerimeter=0;strokeColor=#788AA3;align=center;verticalAlign=middle;fontFamily=Helvetica;fontSize=11;fontColor=default;labelBackgroundColor=none;startFill=0;endArrow=none;fillColor=#B2C9AB;" edge="1" parent="1" source="QP1Ot8ZAfSgMZhXPvZnd-57" target="2SzFF_72ARvEB5GiTpjh-43">
          <mxGeometry relative="1" as="geometry" />
        </mxCell>
        <mxCell id="2SzFF_72ARvEB5GiTpjh-97" value="N" style="text;html=1;align=center;verticalAlign=middle;resizable=0;points=[];autosize=1;strokeColor=none;fillColor=none;fontFamily=Helvetica;fontSize=11;fontColor=default;labelBackgroundColor=none;" vertex="1" parent="1">
          <mxGeometry x="1035" y="358" width="30" height="30" as="geometry" />
        </mxCell>
        <mxCell id="2SzFF_72ARvEB5GiTpjh-98" value="N" style="text;html=1;align=center;verticalAlign=middle;resizable=0;points=[];autosize=1;strokeColor=none;fillColor=none;fontFamily=Helvetica;fontSize=11;fontColor=default;labelBackgroundColor=none;" vertex="1" parent="1">
          <mxGeometry x="685" y="288" width="30" height="30" as="geometry" />
        </mxCell>
        <mxCell id="2SzFF_72ARvEB5GiTpjh-99" value="M" style="text;html=1;align=center;verticalAlign=middle;resizable=0;points=[];autosize=1;strokeColor=none;fillColor=none;fontFamily=Helvetica;fontSize=11;fontColor=default;labelBackgroundColor=none;" vertex="1" parent="1">
          <mxGeometry x="600" y="165" width="30" height="30" as="geometry" />
        </mxCell>
        <mxCell id="2SzFF_72ARvEB5GiTpjh-100" value="M" style="text;html=1;align=center;verticalAlign=middle;resizable=0;points=[];autosize=1;strokeColor=none;fillColor=none;fontFamily=Helvetica;fontSize=11;fontColor=default;labelBackgroundColor=none;" vertex="1" parent="1">
          <mxGeometry x="385" y="373" width="30" height="30" as="geometry" />
        </mxCell>
        <mxCell id="2SzFF_72ARvEB5GiTpjh-101" value="N" style="text;html=1;align=center;verticalAlign=middle;resizable=0;points=[];autosize=1;strokeColor=none;fillColor=none;fontFamily=Helvetica;fontSize=11;fontColor=default;labelBackgroundColor=none;" vertex="1" parent="1">
          <mxGeometry x="445" y="373" width="30" height="30" as="geometry" />
        </mxCell>
        <mxCell id="2SzFF_72ARvEB5GiTpjh-102" value="(0, *)" style="text;html=1;align=center;verticalAlign=middle;resizable=0;points=[];autosize=1;strokeColor=none;fillColor=none;fontFamily=Helvetica;fontSize=11;fontColor=default;labelBackgroundColor=none;" vertex="1" parent="1">
          <mxGeometry x="155" y="170" width="50" height="30" as="geometry" />
        </mxCell>
        <mxCell id="2SzFF_72ARvEB5GiTpjh-103" value="(0,*)" style="text;html=1;align=center;verticalAlign=middle;resizable=0;points=[];autosize=1;strokeColor=none;fillColor=none;fontFamily=Helvetica;fontSize=11;fontColor=default;labelBackgroundColor=none;" vertex="1" parent="1">
          <mxGeometry x="305" y="170" width="40" height="30" as="geometry" />
        </mxCell>
        <mxCell id="2SzFF_72ARvEB5GiTpjh-104" value="(1,1)" style="text;html=1;align=center;verticalAlign=middle;resizable=0;points=[];autosize=1;strokeColor=none;fillColor=none;fontFamily=Helvetica;fontSize=11;fontColor=default;labelBackgroundColor=none;" vertex="1" parent="1">
          <mxGeometry x="225" y="48" width="50" height="30" as="geometry" />
        </mxCell>
        <mxCell id="2SzFF_72ARvEB5GiTpjh-105" value="(0,*)" style="text;html=1;align=center;verticalAlign=middle;resizable=0;points=[];autosize=1;strokeColor=none;fillColor=none;fontFamily=Helvetica;fontSize=11;fontColor=default;labelBackgroundColor=none;" vertex="1" parent="1">
          <mxGeometry x="230" y="108" width="40" height="30" as="geometry" />
        </mxCell>
        <mxCell id="2SzFF_72ARvEB5GiTpjh-106" value="(0;*)" style="text;html=1;align=center;verticalAlign=middle;resizable=0;points=[];autosize=1;strokeColor=none;fillColor=none;fontFamily=Helvetica;fontSize=11;fontColor=default;labelBackgroundColor=none;" vertex="1" parent="1">
          <mxGeometry x="260" y="38" width="40" height="30" as="geometry" />
        </mxCell>
        <mxCell id="2SzFF_72ARvEB5GiTpjh-107" value="(1,*)" style="text;html=1;align=center;verticalAlign=middle;resizable=0;points=[];autosize=1;strokeColor=none;fillColor=none;fontFamily=Helvetica;fontSize=11;fontColor=default;labelBackgroundColor=none;" vertex="1" parent="1">
          <mxGeometry x="410" y="-12" width="40" height="30" as="geometry" />
        </mxCell>
        <mxCell id="2SzFF_72ARvEB5GiTpjh-108" value="(1,2)" style="text;html=1;align=center;verticalAlign=middle;resizable=0;points=[];autosize=1;strokeColor=none;fillColor=none;fontFamily=Helvetica;fontSize=11;fontColor=default;labelBackgroundColor=none;" vertex="1" parent="1">
          <mxGeometry x="415" y="-62" width="50" height="30" as="geometry" />
        </mxCell>
        <mxCell id="2SzFF_72ARvEB5GiTpjh-109" value="(0,*)" style="text;html=1;align=center;verticalAlign=middle;resizable=0;points=[];autosize=1;strokeColor=none;fillColor=none;fontFamily=Helvetica;fontSize=11;fontColor=default;labelBackgroundColor=none;" vertex="1" parent="1">
          <mxGeometry x="420" y="-132" width="40" height="30" as="geometry" />
        </mxCell>
        <mxCell id="2SzFF_72ARvEB5GiTpjh-111" value="(1,1)" style="text;html=1;align=center;verticalAlign=middle;resizable=0;points=[];autosize=1;strokeColor=none;fillColor=none;fontFamily=Helvetica;fontSize=11;fontColor=default;labelBackgroundColor=none;" vertex="1" parent="1">
          <mxGeometry x="485" y="-22" width="50" height="30" as="geometry" />
        </mxCell>
        <mxCell id="2SzFF_72ARvEB5GiTpjh-112" value="(0,*)" style="text;html=1;align=center;verticalAlign=middle;resizable=0;points=[];autosize=1;strokeColor=none;fillColor=none;fontFamily=Helvetica;fontSize=11;fontColor=default;labelBackgroundColor=none;" vertex="1" parent="1">
          <mxGeometry x="670" y="-30" width="40" height="30" as="geometry" />
        </mxCell>
        <mxCell id="2SzFF_72ARvEB5GiTpjh-113" value="(0,*)" style="text;html=1;align=center;verticalAlign=middle;resizable=0;points=[];autosize=1;strokeColor=none;fillColor=none;fontFamily=Helvetica;fontSize=11;fontColor=default;labelBackgroundColor=none;" vertex="1" parent="1">
          <mxGeometry x="320" y="108" width="40" height="30" as="geometry" />
        </mxCell>
        <mxCell id="2SzFF_72ARvEB5GiTpjh-114" value="(0,*)" style="text;html=1;align=center;verticalAlign=middle;resizable=0;points=[];autosize=1;strokeColor=none;fillColor=none;fontFamily=Helvetica;fontSize=11;fontColor=default;labelBackgroundColor=none;" vertex="1" parent="1">
          <mxGeometry x="645" y="15" width="40" height="30" as="geometry" />
        </mxCell>
        <mxCell id="2SzFF_72ARvEB5GiTpjh-115" value="M" style="text;html=1;align=center;verticalAlign=middle;resizable=0;points=[];autosize=1;strokeColor=none;fillColor=none;fontFamily=Helvetica;fontSize=11;fontColor=default;labelBackgroundColor=none;" vertex="1" parent="1">
          <mxGeometry x="710" y="-5" width="30" height="30" as="geometry" />
        </mxCell>
        <mxCell id="2SzFF_72ARvEB5GiTpjh-116" value="N" style="text;html=1;align=center;verticalAlign=middle;resizable=0;points=[];autosize=1;strokeColor=none;fillColor=none;fontFamily=Helvetica;fontSize=11;fontColor=default;labelBackgroundColor=none;" vertex="1" parent="1">
          <mxGeometry x="645" y="105" width="30" height="30" as="geometry" />
        </mxCell>
        <mxCell id="2SzFF_72ARvEB5GiTpjh-117" value="(1,*)" style="text;html=1;align=center;verticalAlign=middle;resizable=0;points=[];autosize=1;strokeColor=none;fillColor=none;fontFamily=Helvetica;fontSize=11;fontColor=default;labelBackgroundColor=none;" vertex="1" parent="1">
          <mxGeometry x="730" y="-2" width="40" height="30" as="geometry" />
        </mxCell>
        <mxCell id="2SzFF_72ARvEB5GiTpjh-118" value="(0,*)" style="text;html=1;align=center;verticalAlign=middle;resizable=0;points=[];autosize=1;strokeColor=none;fillColor=none;fontFamily=Helvetica;fontSize=11;fontColor=default;labelBackgroundColor=none;" vertex="1" parent="1">
          <mxGeometry x="675" y="105" width="40" height="30" as="geometry" />
        </mxCell>
        <mxCell id="2SzFF_72ARvEB5GiTpjh-120" value="N" style="text;html=1;align=center;verticalAlign=middle;resizable=0;points=[];autosize=1;strokeColor=none;fillColor=none;fontFamily=Helvetica;fontSize=11;fontColor=default;labelBackgroundColor=none;" vertex="1" parent="1">
          <mxGeometry x="415" y="308" width="30" height="30" as="geometry" />
        </mxCell>
        <mxCell id="2SzFF_72ARvEB5GiTpjh-121" value="1" style="text;html=1;align=center;verticalAlign=middle;resizable=0;points=[];autosize=1;strokeColor=none;fillColor=none;fontFamily=Helvetica;fontSize=11;fontColor=default;labelBackgroundColor=none;" vertex="1" parent="1">
          <mxGeometry x="415" y="225" width="30" height="30" as="geometry" />
        </mxCell>
        <mxCell id="2SzFF_72ARvEB5GiTpjh-122" value="(1,*)" style="text;html=1;align=center;verticalAlign=middle;resizable=0;points=[];autosize=1;strokeColor=none;fillColor=none;fontFamily=Helvetica;fontSize=11;fontColor=default;labelBackgroundColor=none;" vertex="1" parent="1">
          <mxGeometry x="440" y="228" width="40" height="30" as="geometry" />
        </mxCell>
        <mxCell id="2SzFF_72ARvEB5GiTpjh-123" value="(1,1)" style="text;html=1;align=center;verticalAlign=middle;resizable=0;points=[];autosize=1;strokeColor=none;fillColor=none;fontFamily=Helvetica;fontSize=11;fontColor=default;labelBackgroundColor=none;" vertex="1" parent="1">
          <mxGeometry x="435" y="308" width="50" height="30" as="geometry" />
        </mxCell>
        <mxCell id="2SzFF_72ARvEB5GiTpjh-124" value="(0,*)" style="text;html=1;align=center;verticalAlign=middle;resizable=0;points=[];autosize=1;strokeColor=none;fillColor=none;fontFamily=Helvetica;fontSize=11;fontColor=default;labelBackgroundColor=none;" vertex="1" parent="1">
          <mxGeometry x="410" y="373" width="40" height="30" as="geometry" />
        </mxCell>
        <mxCell id="2SzFF_72ARvEB5GiTpjh-125" value="(0,*)" style="text;html=1;align=center;verticalAlign=middle;resizable=0;points=[];autosize=1;strokeColor=none;fillColor=none;fontFamily=Helvetica;fontSize=11;fontColor=default;labelBackgroundColor=none;" vertex="1" parent="1">
          <mxGeometry x="465" y="373" width="40" height="30" as="geometry" />
        </mxCell>
        <mxCell id="2SzFF_72ARvEB5GiTpjh-126" value="(1,*)" style="text;html=1;align=center;verticalAlign=middle;resizable=0;points=[];autosize=1;strokeColor=none;fillColor=none;fontFamily=Helvetica;fontSize=11;fontColor=default;labelBackgroundColor=none;" vertex="1" parent="1">
          <mxGeometry x="620" y="165" width="40" height="30" as="geometry" />
        </mxCell>
        <mxCell id="2SzFF_72ARvEB5GiTpjh-127" value="(0,*)" style="text;html=1;align=center;verticalAlign=middle;resizable=0;points=[];autosize=1;strokeColor=none;fillColor=none;fontFamily=Helvetica;fontSize=11;fontColor=default;labelBackgroundColor=none;" vertex="1" parent="1">
          <mxGeometry x="715" y="288" width="40" height="30" as="geometry" />
        </mxCell>
        <mxCell id="2SzFF_72ARvEB5GiTpjh-128" value="(1,1)" style="text;html=1;align=center;verticalAlign=middle;resizable=0;points=[];autosize=1;strokeColor=none;fillColor=none;fontFamily=Helvetica;fontSize=11;fontColor=default;labelBackgroundColor=none;" vertex="1" parent="1">
          <mxGeometry x="675" y="148" width="50" height="30" as="geometry" />
        </mxCell>
        <mxCell id="2SzFF_72ARvEB5GiTpjh-129" value="(0,*)" style="text;html=1;align=center;verticalAlign=middle;resizable=0;points=[];autosize=1;strokeColor=none;fillColor=none;fontFamily=Helvetica;fontSize=11;fontColor=default;labelBackgroundColor=none;" vertex="1" parent="1">
          <mxGeometry x="910" y="148" width="40" height="30" as="geometry" />
        </mxCell>
        <mxCell id="2SzFF_72ARvEB5GiTpjh-130" value="(0,*)" style="text;html=1;align=center;verticalAlign=middle;resizable=0;points=[];autosize=1;strokeColor=none;fillColor=none;fontFamily=Helvetica;fontSize=11;fontColor=default;labelBackgroundColor=none;" vertex="1" parent="1">
          <mxGeometry x="980" y="168" width="40" height="30" as="geometry" />
        </mxCell>
        <mxCell id="2SzFF_72ARvEB5GiTpjh-131" value="(1,1)" style="text;html=1;align=center;verticalAlign=middle;resizable=0;points=[];autosize=1;strokeColor=none;fillColor=none;fontFamily=Helvetica;fontSize=11;fontColor=default;labelBackgroundColor=none;" vertex="1" parent="1">
          <mxGeometry x="970" y="285" width="50" height="30" as="geometry" />
        </mxCell>
        <mxCell id="2SzFF_72ARvEB5GiTpjh-132" value="(0,*)" style="text;html=1;align=center;verticalAlign=middle;resizable=0;points=[];autosize=1;strokeColor=none;fillColor=none;fontFamily=Helvetica;fontSize=11;fontColor=default;labelBackgroundColor=none;" vertex="1" parent="1">
          <mxGeometry x="970" y="358" width="40" height="30" as="geometry" />
        </mxCell>
        <mxCell id="2SzFF_72ARvEB5GiTpjh-133" value="(0,*)" style="text;html=1;align=center;verticalAlign=middle;resizable=0;points=[];autosize=1;strokeColor=none;fillColor=none;fontFamily=Helvetica;fontSize=11;fontColor=default;labelBackgroundColor=none;" vertex="1" parent="1">
          <mxGeometry x="1070" y="358" width="40" height="30" as="geometry" />
        </mxCell>
        <mxCell id="2SzFF_72ARvEB5GiTpjh-162" value="&lt;h1 style=&quot;margin-top: 0px;&quot;&gt;&lt;br&gt;&lt;/h1&gt;" style="text;html=1;whiteSpace=wrap;overflow=hidden;rounded=0;fontFamily=Helvetica;fontSize=11;fontColor=default;labelBackgroundColor=none;" vertex="1" parent="1">
          <mxGeometry x="220" y="550" width="630" height="310" as="geometry" />
        </mxCell>
        <mxCell id="2SzFF_72ARvEB5GiTpjh-179" value="&lt;h1 style=&quot;margin-top: 0px;&quot;&gt;&lt;span style=&quot;background-color: transparent; color: light-dark(rgb(0, 0, 0), rgb(255, 255, 255)); font-size: 12px;&quot;&gt;Entities&lt;/span&gt;&lt;/h1&gt;&lt;h1 style=&quot;margin-top: 0px;&quot;&gt;&lt;span style=&quot;background-color: transparent; color: light-dark(rgb(0, 0, 0), rgb(255, 255, 255)); font-size: 12px;&quot;&gt;Book &lt;/span&gt;&lt;u style=&quot;background-color: transparent; color: light-dark(rgb(0, 0, 0), rgb(255, 255, 255)); font-size: 12px; font-weight: 400;&quot;&gt;(ISBN,&lt;/u&gt;&lt;span style=&quot;background-color: transparent; color: light-dark(rgb(0, 0, 0), rgb(255, 255, 255)); font-size: 12px; font-weight: 400;&quot;&gt;publishing House,&lt;/span&gt;&lt;i style=&quot;background-color: transparent; color: light-dark(rgb(0, 0, 0), rgb(255, 255, 255)); font-size: 12px; font-weight: 400;&quot;&gt;Copy ID)&lt;/i&gt;&lt;/h1&gt;&lt;div&gt;&lt;i style=&quot;font-size: 12px; background-color: transparent; color: light-dark(rgb(0, 0, 0), rgb(255, 255, 255));&quot;&gt;&lt;b&gt;Copy&lt;/b&gt;&lt;/i&gt;&lt;span style=&quot;font-size: 12px; font-weight: 400; background-color: transparent; color: light-dark(rgb(0, 0, 0), rgb(255, 255, 255));&quot;&gt;&lt;i&gt; (&lt;/i&gt;&lt;u style=&quot;&quot;&gt;Copy ID&lt;/u&gt;&lt;i&gt;, ISBN, Borrowing ID)&lt;/i&gt;&lt;/span&gt;&lt;/div&gt;&lt;div&gt;&lt;span style=&quot;font-size: 12px; background-color: transparent; color: light-dark(rgb(0, 0, 0), rgb(255, 255, 255));&quot;&gt;&lt;i&gt;&lt;br&gt;&lt;/i&gt;&lt;/span&gt;&lt;/div&gt;&lt;div&gt;&lt;span style=&quot;font-size: 12px; background-color: transparent; color: light-dark(rgb(0, 0, 0), rgb(255, 255, 255));&quot;&gt;&lt;b&gt;Borrowing and Returning&lt;/b&gt;&lt;span style=&quot;font-weight: 400;&quot;&gt;&lt;i&gt;(&lt;/i&gt;&lt;u style=&quot;&quot;&gt;Borrowing ID&lt;/u&gt;&lt;i&gt;, &lt;/i&gt;borrowing date, return date&lt;i&gt;, Copy ID, Customer ID)&lt;/i&gt;&lt;/span&gt;&lt;/span&gt;&lt;/div&gt;&lt;div&gt;&lt;br&gt;&lt;/div&gt;&lt;div&gt;&lt;span style=&quot;font-size: 12px; background-color: transparent; color: light-dark(rgb(0, 0, 0), rgb(255, 255, 255));&quot;&gt;&lt;b style=&quot;&quot;&gt;Employee&lt;/b&gt;&lt;i&gt;(&lt;/i&gt;&lt;i style=&quot;&quot;&gt;Employee ID&lt;/i&gt;&lt;i&gt;, &lt;/i&gt;Name, responsibility&lt;i&gt;, Borrowind ID)&lt;/i&gt;&lt;/span&gt;&lt;/div&gt;&lt;div&gt;&lt;br&gt;&lt;/div&gt;&lt;div&gt;&lt;span style=&quot;font-size: 12px; background-color: transparent; color: light-dark(rgb(0, 0, 0), rgb(255, 255, 255));&quot;&gt;&lt;b style=&quot;&quot;&gt;Customer&lt;/b&gt;&lt;i&gt;( &lt;/i&gt;&lt;u&gt;Custommer ID&lt;/u&gt;&lt;i&gt;, &lt;/i&gt;Name. Adress&lt;i&gt;, Borrowinf ID, ISBN, Publication ID)&lt;/i&gt;&lt;/span&gt;&lt;/div&gt;&lt;div&gt;&lt;br&gt;&lt;/div&gt;&lt;div&gt;&lt;span style=&quot;font-size: 12px; background-color: transparent; color: light-dark(rgb(0, 0, 0), rgb(255, 255, 255));&quot;&gt;&lt;b style=&quot;&quot;&gt;Publication&lt;/b&gt;&lt;i&gt;(&lt;/i&gt;&lt;u style=&quot;&quot;&gt;Publication ID&lt;/u&gt;&lt;i&gt;, Customer ID, Author ID, shelf ID)&lt;/i&gt;&lt;/span&gt;&lt;/div&gt;&lt;div&gt;&lt;span style=&quot;font-size: 12px; background-color: transparent; color: light-dark(rgb(0, 0, 0), rgb(255, 255, 255));&quot;&gt;&lt;i&gt;&lt;br&gt;&lt;/i&gt;&lt;/span&gt;&lt;/div&gt;&lt;div&gt;&lt;span style=&quot;font-size: 12px; background-color: transparent; color: light-dark(rgb(0, 0, 0), rgb(255, 255, 255));&quot;&gt;&lt;b style=&quot;&quot;&gt;Author&lt;/b&gt;&lt;i&gt;(&lt;/i&gt;&lt;u&gt;Author I&lt;/u&gt;D&lt;i&gt;, &lt;/i&gt;Name&lt;i&gt;)&lt;/i&gt;&lt;/span&gt;&lt;/div&gt;&lt;div&gt;&lt;span style=&quot;font-size: 12px; background-color: transparent; color: light-dark(rgb(0, 0, 0), rgb(255, 255, 255));&quot;&gt;&lt;i&gt;&lt;br&gt;&lt;/i&gt;&lt;/span&gt;&lt;/div&gt;&lt;div&gt;&lt;span style=&quot;font-size: 12px; background-color: transparent; color: light-dark(rgb(0, 0, 0), rgb(255, 255, 255));&quot;&gt;&lt;b style=&quot;font-style: italic;&quot;&gt;Keyword(&lt;/b&gt;&lt;u style=&quot;&quot;&gt;keyword ID&lt;/u&gt;&lt;i&gt;, relevance, shelf ID)&lt;/i&gt;&lt;/span&gt;&lt;/div&gt;&lt;div&gt;&lt;span style=&quot;font-size: 12px; background-color: transparent; color: light-dark(rgb(0, 0, 0), rgb(255, 255, 255));&quot;&gt;&lt;i&gt;&lt;br&gt;&lt;/i&gt;&lt;/span&gt;&lt;/div&gt;&lt;div&gt;&lt;span style=&quot;font-size: 12px; background-color: transparent; color: light-dark(rgb(0, 0, 0), rgb(255, 255, 255));&quot;&gt;&lt;b style=&quot;&quot;&gt;Article&lt;/b&gt;&lt;i&gt;( &lt;/i&gt;&lt;u style=&quot;&quot;&gt;article ID&lt;/u&gt;&lt;i&gt;, &lt;/i&gt;Topic&lt;i&gt;, Journal ID)&lt;/i&gt;&lt;/span&gt;&lt;/div&gt;&lt;div&gt;&lt;span style=&quot;font-size: 12px; background-color: transparent; color: light-dark(rgb(0, 0, 0), rgb(255, 255, 255));&quot;&gt;&lt;i&gt;&lt;br&gt;&lt;/i&gt;&lt;/span&gt;&lt;/div&gt;&lt;div&gt;&lt;span style=&quot;font-size: 12px; background-color: transparent; color: light-dark(rgb(0, 0, 0), rgb(255, 255, 255));&quot;&gt;&lt;b&gt;Journal&lt;/b&gt;&lt;i&gt;(&lt;/i&gt;&lt;u&gt;Journal ID&lt;/u&gt;&lt;i&gt;, &lt;/i&gt;Name&lt;i&gt;, article ID)&lt;/i&gt;&lt;/span&gt;&lt;/div&gt;" style="text;html=1;whiteSpace=wrap;overflow=hidden;rounded=0;fontFamily=Helvetica;fontSize=11;fontColor=default;labelBackgroundColor=none;" vertex="1" parent="1">
          <mxGeometry x="1240" y="-122" width="572.5" height="382" as="geometry" />
        </mxCell>
        <mxCell id="2SzFF_72ARvEB5GiTpjh-181" value="&lt;h1 style=&quot;margin-top: 0px;&quot;&gt;&lt;span style=&quot;background-color: transparent; color: light-dark(rgb(0, 0, 0), rgb(255, 255, 255)); font-weight: normal;&quot;&gt;&lt;b style=&quot;&quot;&gt;&lt;font style=&quot;font-size: 16px;&quot;&gt;Relations&lt;/font&gt;&lt;/b&gt;&lt;/span&gt;&lt;/h1&gt;&lt;h1 style=&quot;margin-top: 0px;&quot;&gt;&lt;span style=&quot;background-color: transparent; color: light-dark(rgb(0, 0, 0), rgb(255, 255, 255)); font-weight: normal; font-size: 12px;&quot;&gt;&lt;b&gt;multiblication of&lt;/b&gt;&lt;/span&gt;&lt;i style=&quot;background-color: transparent; color: light-dark(rgb(0, 0, 0), rgb(255, 255, 255)); font-weight: 400; font-size: 12px;&quot;&gt;(Copy ID, ISBN)&lt;/i&gt;&lt;/h1&gt;&lt;div&gt;&lt;span style=&quot;font-size: 12px; background-color: transparent; color: light-dark(rgb(0, 0, 0), rgb(255, 255, 255));&quot;&gt;&lt;b style=&quot;&quot;&gt;can be&lt;/b&gt;&lt;i&gt; (Copy ID, ISBN)&lt;/i&gt;&lt;/span&gt;&lt;/div&gt;&lt;div&gt;&lt;br&gt;&lt;/div&gt;&lt;div&gt;&lt;span style=&quot;font-size: 12px; background-color: transparent; color: light-dark(rgb(0, 0, 0), rgb(255, 255, 255));&quot;&gt;&lt;b style=&quot;&quot;&gt;responsible fo&lt;/b&gt;&lt;i&gt;r (Borrowing ID Employee ID)&lt;/i&gt;&lt;/span&gt;&lt;/div&gt;&lt;div&gt;&lt;br&gt;&lt;/div&gt;&lt;div&gt;&lt;span style=&quot;font-size: 12px; background-color: transparent; color: light-dark(rgb(0, 0, 0), rgb(255, 255, 255));&quot;&gt;&lt;i&gt;&lt;b&gt;carried out by&lt;/b&gt;(Borrowing ID, Customer ID)&lt;/i&gt;&lt;/span&gt;&lt;/div&gt;&lt;div&gt;&lt;br&gt;&lt;/div&gt;&lt;div&gt;&lt;span style=&quot;font-size: 12px; background-color: transparent; color: light-dark(rgb(0, 0, 0), rgb(255, 255, 255));&quot;&gt;&lt;b style=&quot;&quot;&gt;reserve&lt;/b&gt;&lt;i&gt;(Customer ID, ISBN)&lt;/i&gt;&lt;/span&gt;&lt;/div&gt;&lt;div&gt;&lt;span style=&quot;font-size: 12px; background-color: transparent; color: light-dark(rgb(0, 0, 0), rgb(255, 255, 255));&quot;&gt;&lt;i&gt;&lt;br&gt;&lt;/i&gt;&lt;/span&gt;&lt;/div&gt;&lt;div&gt;&lt;span style=&quot;font-size: 12px; background-color: transparent; color: light-dark(rgb(0, 0, 0), rgb(255, 255, 255));&quot;&gt;&lt;b style=&quot;&quot;&gt;reads&lt;/b&gt;&lt;i&gt;(Customer ID, Publication ID)&lt;/i&gt;&lt;/span&gt;&lt;/div&gt;&lt;div&gt;&lt;span style=&quot;font-size: 12px; background-color: transparent; color: light-dark(rgb(0, 0, 0), rgb(255, 255, 255));&quot;&gt;&lt;i&gt;&lt;br&gt;&lt;/i&gt;&lt;/span&gt;&lt;/div&gt;&lt;div&gt;&lt;span style=&quot;font-size: 12px; background-color: transparent; color: light-dark(rgb(0, 0, 0), rgb(255, 255, 255));&quot;&gt;&lt;b&gt;written b&lt;/b&gt;&lt;i&gt;y(Publication ID, Authors)&lt;/i&gt;&lt;/span&gt;&lt;/div&gt;&lt;div&gt;&lt;span style=&quot;font-size: 12px; background-color: transparent; color: light-dark(rgb(0, 0, 0), rgb(255, 255, 255));&quot;&gt;&lt;i&gt;&lt;br&gt;&lt;/i&gt;&lt;/span&gt;&lt;/div&gt;&lt;div&gt;&lt;span style=&quot;font-size: 12px; background-color: transparent; color: light-dark(rgb(0, 0, 0), rgb(255, 255, 255));&quot;&gt;&lt;b style=&quot;&quot;&gt;stored on&lt;/b&gt;&lt;i&gt;(Publication ID, Shelf ID)&lt;/i&gt;&lt;/span&gt;&lt;/div&gt;&lt;div&gt;&lt;span style=&quot;font-size: 12px; background-color: transparent; color: light-dark(rgb(0, 0, 0), rgb(255, 255, 255));&quot;&gt;&lt;i&gt;&lt;br&gt;&lt;/i&gt;&lt;/span&gt;&lt;/div&gt;&lt;div&gt;&lt;span style=&quot;font-size: 12px; background-color: transparent; color: light-dark(rgb(0, 0, 0), rgb(255, 255, 255));&quot;&gt;&lt;b style=&quot;&quot;&gt;searched by&lt;/b&gt;&lt;i&gt;(shelf ID, Keyword ID)&lt;/i&gt;&lt;/span&gt;&lt;/div&gt;&lt;div&gt;&lt;span style=&quot;font-size: 12px; background-color: transparent; color: light-dark(rgb(0, 0, 0), rgb(255, 255, 255));&quot;&gt;&lt;i&gt;&lt;br&gt;&lt;/i&gt;&lt;/span&gt;&lt;/div&gt;&lt;div&gt;&lt;b&gt;published in&lt;/b&gt; &lt;i&gt;(Journal ID, Article ID&lt;/i&gt;)&lt;/div&gt;" style="text;html=1;whiteSpace=wrap;overflow=hidden;rounded=0;fontFamily=Helvetica;fontSize=11;fontColor=default;labelBackgroundColor=none;" vertex="1" parent="1">
          <mxGeometry x="1240" y="300" width="572.5" height="382" as="geometry" />
        </mxCell>
      </root>
    </mxGraphModel>
  </diagram>
</mxfile>
